<svg width="199" height="64" viewBox="0 0 199 64" fill="none" xmlns="http://www.w3.org/2000/svg">
<path d="M191.907 63.6661H6.98041C3.16373 63.6661 0 60.2517 0 56.1325V7.53356C0 3.41443 3.10931 0 6.98041 0H191.911C195.727 0 199 3.35571 199 7.53356V56.1367C198.996 60.2517 195.778 63.6661 191.907 63.6661Z" fill="#A6A6A6"/>
<path d="M197.579 56.1325C197.578 56.1325 197.578 56.1334 197.578 56.1345C197.577 59.4893 195.07 62.2525 191.907 62.2525H6.98043C3.87111 62.2525 1.30981 59.5469 1.30981 56.1325V7.53354C1.30981 4.17784 3.87111 1.41357 6.98043 1.41357H191.911C195.02 1.41357 197.581 4.17784 197.581 7.53354V56.1306C197.581 56.1316 197.581 56.1325 197.579 56.1325Z" fill="black"/>
<path d="M44.432 31.4806C44.4289 31.1829 44.4392 30.8939 44.4614 30.6136C44.8161 26.1488 46.132 19.7105 41.6531 19.7105C38.7653 19.3582 35.9281 21.5939 34.455 21.5939C32.9276 21.5939 30.6927 19.7692 28.2403 19.828C25.0765 19.8867 22.1344 21.8288 20.4981 24.8867C17.1711 31.1241 19.6275 40.302 22.8417 45.3649C24.4236 47.8355 26.3319 50.5998 28.7844 50.4823C31.1825 50.3649 32.057 48.8338 34.9447 48.8338C37.8325 48.8338 38.6526 50.4823 41.1595 50.4236C43.7208 50.3649 45.357 47.953 46.8845 45.4236C48.7895 42.5228 46.5005 38.4297 45.1517 35.2322C44.7169 34.2016 44.432 32.961 44.432 31.4806Z" fill="white"/>
<path d="M39.6904 16.4178C39.7749 16.3038 39.8575 16.1875 39.9382 16.0688C41.9956 13.0415 38.3253 10.1466 36.0369 13.0033C36.002 13.0461 35.9673 13.0898 35.9327 13.1342C33.5979 16.134 37.3173 19.3874 39.6904 16.4178Z" fill="white"/>
<path d="M78.4422 48.0855C78.7475 49.1072 77.9822 50.1345 76.9158 50.1345C76.2108 50.1345 75.5896 49.6711 75.3887 48.9953L74.7744 46.9283C74.2399 45.1302 72.5871 43.8971 70.7112 43.8971C68.8099 43.8971 67.1413 45.163 66.629 46.9939L66.0687 48.9965C65.8805 49.6693 65.2673 50.1345 64.5686 50.1345C63.5259 50.1345 62.7776 49.1302 63.0758 48.1311L68.2399 30.8326C68.573 29.7165 69.5995 28.9517 70.7643 28.9517C71.9289 28.9517 72.9553 29.7163 73.2886 30.8321L78.4422 48.0855ZM70.7136 41.3048C72.0194 41.3048 72.9578 40.0487 72.5875 38.7965L71.693 35.7721C71.5305 35.1874 71.2061 33.8998 70.7198 31.7974C70.7162 31.7818 70.7022 31.7705 70.6862 31.7705C70.6703 31.7705 70.6566 31.781 70.6528 31.7964C70.4362 32.6778 70.1652 34.0234 69.7341 35.7721L68.8397 38.7965C68.4694 40.0487 69.4078 41.3048 70.7136 41.3048Z" fill="white"/>
<path d="M95.3006 42.3066C95.3006 44.8947 94.6476 46.9543 93.3378 48.4853C92.1913 49.8402 90.7221 50.4861 88.977 50.4861C87.1306 50.4861 85.7699 49.7871 84.9526 48.3269C84.9465 48.316 84.935 48.3091 84.9225 48.3091C84.9036 48.3091 84.8883 48.3245 84.8883 48.3434V54.7893C84.8883 55.663 84.1801 56.3712 83.3064 56.3712C82.4328 56.3712 81.7245 55.663 81.7245 54.7893V39.8947C81.7245 38.7206 81.6969 37.5464 81.6614 36.3526C81.6377 35.555 82.2764 34.8947 83.0743 34.8947H83.186C83.8663 34.8947 84.4303 35.4218 84.4763 36.1006L84.5556 37.2731C84.5569 37.292 84.5726 37.3066 84.5914 37.3066C84.6044 37.3066 84.6163 37.2995 84.6227 37.2883C85.6606 35.4761 87.2353 34.6011 89.4084 34.6011C91.0991 34.6011 92.4633 35.3058 93.606 36.7194C94.7487 38.1329 95.3006 40.0121 95.3006 42.3066ZM92.1369 42.4241C92.1369 40.9517 91.8104 39.7185 91.2118 38.7747C90.5589 37.7764 89.63 37.2437 88.4873 37.2437C87.7255 37.2437 87.0143 37.5373 86.3613 38.0658C85.7084 38.5944 85.3236 39.362 85.1059 40.2428C84.9971 40.6539 84.9427 41.0063 84.9427 41.2999V43.8293C84.9427 44.9492 85.2692 45.8888 85.8677 46.6522C86.5207 47.4157 87.3407 47.7722 88.3202 47.7722C89.5212 47.7722 90.4462 47.3024 91.0991 46.2999C91.756 45.3645 92.1369 44.0725 92.1369 42.4241Z" fill="white"/>
<path d="M111.601 42.3066C111.601 44.8947 110.948 46.9543 109.638 48.4853C108.492 49.8402 107.023 50.4861 105.278 50.4861C103.431 50.4861 102.07 49.7871 101.253 48.3269C101.247 48.316 101.236 48.3091 101.223 48.3091C101.204 48.3091 101.189 48.3245 101.189 48.3434V54.7893C101.189 55.663 100.481 56.3712 99.607 56.3712C98.7333 56.3712 98.0251 55.663 98.0251 54.7893V39.8947C98.0251 38.7206 97.9975 37.5464 97.9619 36.3526C97.9382 35.555 98.5769 34.8947 99.3749 34.8947H99.4865C100.167 34.8947 100.731 35.4218 100.777 36.1006L100.856 37.2731C100.857 37.292 100.873 37.3066 100.892 37.3066C100.905 37.3066 100.917 37.2995 100.923 37.2883C101.961 35.4761 103.536 34.6011 105.709 34.6011C107.4 34.6011 108.764 35.3058 109.907 36.7194C111.003 38.1288 111.601 40.0121 111.601 42.3066ZM108.383 42.4241C108.383 40.9517 108.057 39.7185 107.458 38.7747C106.805 37.7764 105.876 37.2437 104.733 37.2437C103.972 37.2437 103.26 37.5373 102.607 38.0658C101.954 38.5944 101.57 39.362 101.352 40.2428C101.243 40.6539 101.189 41.0063 101.189 41.2999V43.8293C101.189 44.9492 101.515 45.8888 102.114 46.6522C102.767 47.4157 103.587 47.7722 104.566 47.7722C105.767 47.7722 106.692 47.3024 107.345 46.2999C108.057 45.3645 108.383 44.0725 108.383 42.4241Z" fill="white"/>
<path d="M129.756 44.1904C129.756 46.0151 129.157 47.4874 128.01 48.6032C126.755 49.8406 124.956 50.4278 122.666 50.4278C120.976 50.4278 119.56 50.1678 118.42 49.6162C117.9 49.3646 117.687 48.7622 117.827 48.2019C118.06 47.273 119.144 46.8518 120.044 47.1779C120.925 47.497 121.856 47.6636 122.826 47.6636C124.027 47.6636 124.952 47.37 125.605 46.7827C126.258 46.1955 126.584 45.4279 126.584 44.4883C126.584 43.6074 126.312 42.8985 125.768 42.3112C125.224 41.724 124.349 41.1913 123.043 40.6627C119.608 39.3079 117.917 37.2483 117.917 34.6015C117.917 32.8356 118.515 31.4262 119.716 30.3062C120.917 29.1862 122.495 28.6577 124.512 28.6577C125.845 28.6577 126.998 28.8508 127.993 29.2132C128.589 29.4305 128.863 30.0899 128.694 30.7021C128.455 31.5678 127.452 31.9641 126.589 31.7145C125.926 31.5225 125.216 31.422 124.458 31.422C123.366 31.422 122.495 31.7156 121.897 32.3028C121.353 32.8314 121.135 33.4815 121.135 34.245C121.135 35.0671 121.407 35.776 122.06 36.3045C122.604 36.8331 123.533 37.3616 124.893 37.953C126.584 38.6577 127.836 39.5428 128.601 40.5411C129.375 41.4807 129.756 42.7181 129.756 44.1904Z" fill="white"/>
<path d="M140.168 37.4225C140.168 37.4237 140.167 37.4246 140.166 37.4246H138.423C137.459 37.4246 136.678 38.2059 136.678 39.1697V44.8365C136.678 46.7199 137.276 47.6595 138.531 47.6595C139.257 47.6595 139.98 48.1921 140.01 48.9166L140.02 49.1533C140.043 49.7027 139.715 50.215 139.173 50.3079C138.722 50.3852 138.199 50.4238 137.606 50.4238C136.351 50.4238 135.372 50.0127 134.719 49.1864C134.011 48.3642 133.681 47.0093 133.681 45.0672V38.3933C133.681 37.8213 133.217 37.3575 132.645 37.3575C132.073 37.3575 131.609 36.8938 131.609 36.3217V35.8639C131.609 35.2919 132.073 34.8282 132.645 34.8282C133.217 34.8282 133.681 34.3644 133.681 33.7924V33.1388C133.681 32.4633 134.117 31.8651 134.76 31.6586C135.764 31.3364 136.79 32.0849 136.79 33.1388V33.2191C136.79 34.1101 137.513 34.8323 138.403 34.8323H138.986C139.701 34.8323 140.28 35.4117 140.28 36.1264V37.3641C140.28 37.3952 140.255 37.4204 140.224 37.4204H140.17C140.169 37.4204 140.168 37.4214 140.168 37.4225Z" fill="white"/>
<path d="M155.815 42.3657C155.815 44.7189 155.217 46.661 153.961 48.1334C152.652 49.6644 150.907 50.4866 148.781 50.4866C146.709 50.4866 145.073 49.7231 143.821 48.2508C142.566 46.7785 141.967 44.8951 141.967 42.6007C141.967 40.2475 142.62 38.3053 143.876 36.7743C145.131 35.2433 146.876 34.5386 149.002 34.5386C151.074 34.5386 152.764 35.302 154.02 36.7743C155.217 38.2466 155.815 40.0713 155.815 42.3657ZM152.547 42.4832C152.547 41.0696 152.275 39.8951 151.731 38.8339C151.078 37.5965 150.149 37.0092 148.897 37.0092C147.642 37.0092 146.662 37.5965 146.009 38.8339C145.465 39.8322 145.193 41.0696 145.193 42.5419C145.193 43.9555 145.465 45.13 146.009 46.1913C146.662 47.4287 147.646 48.0159 148.843 48.0159C150.044 48.0159 150.969 47.3699 151.676 46.1325C152.216 45.13 152.547 43.8968 152.547 42.4832Z" fill="white"/>
<path d="M166.01 37.8373C166.01 37.8362 166.009 37.8352 166.008 37.8351C165.682 37.7764 165.357 37.7179 165.031 37.7179C163.939 37.7179 163.068 38.1877 162.469 39.0728C161.925 39.895 161.708 40.8975 161.708 42.072V48.4976C161.708 49.3689 161.001 50.0753 160.13 50.0753C159.255 50.0753 158.548 49.3639 158.552 48.4894L158.598 39.6013C158.598 38.3865 158.573 37.2551 158.539 36.1893C158.514 35.4181 159.131 34.7775 159.902 34.7775C160.634 34.7775 161.235 35.3567 161.263 36.0885L161.321 37.6559C161.322 37.6905 161.35 37.7179 161.385 37.7179C161.413 37.7179 161.438 37.6999 161.446 37.6735C161.774 36.6951 162.313 35.8845 163.014 35.306C163.721 34.7775 164.487 34.4839 165.303 34.4839C165.755 34.4839 166.065 34.8567 166.065 35.3088V37.8124C166.065 37.8274 166.052 37.8396 166.037 37.8396H166.012C166.011 37.8396 166.01 37.8386 166.01 37.8373Z" fill="white"/>
<path d="M180.076 41.7785C180.076 42.6576 179.31 43.3095 178.431 43.3095H174.368C172.273 43.3095 170.376 45.3438 171.898 46.7827C172.715 47.4874 173.698 47.8397 175.008 47.8397C175.877 47.8397 176.683 47.7516 177.442 47.5752C178.177 47.404 178.967 47.8178 179.12 48.5574C179.234 49.1035 178.961 49.6644 178.434 49.8465C177.283 50.2437 175.997 50.4278 174.572 50.4278C172.392 50.4278 170.647 49.7231 169.392 48.3683C168.136 46.9547 167.538 45.13 167.538 42.7768C167.538 40.4824 168.136 38.5402 169.283 37.0092C170.484 35.3607 172.17 34.5386 174.242 34.5386C176.259 34.5386 177.841 35.3607 178.875 37.0092C179.641 38.2466 180.076 39.8951 180.076 41.7785ZM174.389 40.8934C175.875 40.8934 177.262 39.5696 176.481 38.3053C175.937 37.3657 175.117 36.8918 173.974 36.8918C172.936 36.8918 172.12 37.3616 171.467 38.2466C170.538 39.4494 171.863 40.8934 173.383 40.8934H174.389Z" fill="white"/>
<path d="M72.2917 15.9484C72.2917 17.8318 71.7475 19.2453 70.7098 20.1849C69.7304 21.0658 68.3662 21.4811 66.6211 21.4811C65.3507 21.4811 64.3862 20.3951 64.3862 19.1248V13.8075C64.3862 12.2676 65.5165 10.8896 67.0564 10.8896C68.747 10.8896 69.9985 11.3007 70.873 12.0683C71.8019 13.0037 72.2917 14.2999 72.2917 15.9484ZM70.6593 16.0071C70.6593 14.7697 70.3872 13.8888 69.7887 13.2428C69.1901 12.5969 68.3156 12.2445 67.173 12.2445C66.4425 12.2445 65.9176 12.8941 65.9176 13.6245V19.0881C65.9176 19.7134 66.3299 20.1891 66.9553 20.1891C68.1563 20.1891 69.0269 19.8368 69.6798 19.1321C70.3289 18.3603 70.6593 17.3578 70.6593 16.0071Z" fill="white"/>
<path d="M80.9627 17.5924C80.9627 18.7711 80.6362 19.7107 80.0377 20.4154C79.3847 21.1788 78.5646 21.5353 77.4764 21.5353C76.4386 21.5353 75.6224 21.183 75.0239 20.4154C74.4254 19.7107 74.0989 18.7669 74.0989 17.6511C74.0989 16.4724 74.4254 15.5328 75.0239 14.7694C75.6224 14.006 76.4969 13.6494 77.5308 13.6494C78.5685 13.6494 79.3847 14.0018 79.9833 14.7694C80.6362 15.5328 80.9627 16.4766 80.9627 17.5924ZM79.3264 17.6511C79.3264 16.9464 79.1632 16.355 78.8911 15.8852C78.5646 15.2979 78.1293 15.0043 77.5269 15.0043C76.9284 15.0043 76.4348 15.2979 76.1083 15.8852C75.8362 16.355 75.673 17.0051 75.673 17.7098C75.673 18.4145 75.8362 19.006 76.1083 19.4758C76.4348 20.063 76.9245 20.3566 77.5269 20.3566C78.1254 20.3566 78.5646 20.063 78.8911 19.417C79.2176 18.9472 79.3264 18.3013 79.3264 17.6511Z" fill="white"/>
<path d="M91.5243 13.8882C92.021 13.8882 92.3785 14.365 92.2394 14.8418L90.5354 20.6799C90.418 21.0823 90.0492 21.3588 89.6301 21.3588C89.209 21.3588 88.8389 21.0797 88.7233 20.6748L87.9937 18.1206C87.7785 17.308 87.5634 16.4914 87.4534 15.7354C87.4511 15.72 87.438 15.7087 87.4225 15.7087C87.4068 15.7087 87.3936 15.7202 87.3915 15.7357C87.2815 16.5489 87.0662 17.3655 86.851 18.1206L86.0744 20.6881C85.954 21.0864 85.5869 21.3588 85.1708 21.3588C84.7466 21.3588 84.3745 21.0758 84.2611 20.667L82.6429 14.8314C82.5114 14.3572 82.8681 13.8882 83.3602 13.8882C83.7118 13.8882 84.0154 14.1342 84.0884 14.4781L84.725 17.4788C84.8864 18.2916 85.0478 19.1086 85.2092 19.8647C85.2124 19.8799 85.2258 19.8907 85.2413 19.8907C85.2574 19.8907 85.271 19.8792 85.2738 19.8634C85.3841 19.2231 85.5994 18.4631 85.8677 17.4788L86.6828 14.4906C86.7798 14.1349 87.1028 13.8882 87.4715 13.8882C87.8432 13.8882 88.1682 14.139 88.2623 14.4986L89.0275 17.4201C89.2428 18.2912 89.458 19.0516 89.568 19.8636C89.5701 19.8791 89.5833 19.8907 89.599 19.8907C89.6145 19.8907 89.6277 19.8793 89.6299 19.8639C89.7387 19.108 89.9007 18.2907 90.1158 17.4201L90.7986 14.4653C90.8767 14.1275 91.1776 13.8882 91.5243 13.8882Z" fill="white"/>
<path d="M100.536 21.3609C100.536 21.3597 100.535 21.3588 100.534 21.3588H99.7721C99.3503 21.3588 99.0084 21.0169 99.0084 20.5951V17.0635C99.0084 15.7673 98.5187 15.0627 97.5898 15.0627C97.1545 15.0627 96.7736 15.2388 96.4976 15.5912C96.2217 15.9435 96.0623 16.3546 96.0623 16.8873V20.5951C96.0623 21.0169 95.7204 21.3588 95.2986 21.3588C94.8768 21.3588 94.5349 21.0169 94.5349 20.5951V16.0064C94.5349 15.5687 94.5349 15.1021 94.518 14.6093C94.5046 14.2193 94.8123 13.8882 95.2026 13.8882H95.2547C95.5849 13.8882 95.8567 14.1477 95.8719 14.4775L95.8976 15.0343C95.8984 15.0525 95.9135 15.0668 95.9317 15.0668C95.945 15.0668 95.9571 15.0591 95.9628 15.0471C96.127 14.7035 96.3959 14.4165 96.7697 14.186C97.205 13.8924 97.6403 13.7749 98.1883 13.7749C98.8413 13.7749 99.3893 14.0098 99.8246 14.4796C100.369 15.0081 100.641 15.8932 100.641 16.9502V21.3105C100.641 21.3395 100.617 21.363 100.588 21.363H100.538C100.537 21.363 100.536 21.362 100.536 21.3609Z" fill="white"/>
<path d="M104.788 20.6537V11.2374C104.788 10.8156 104.446 10.4736 104.024 10.4736C103.602 10.4736 103.26 10.8156 103.26 11.2374V20.6537C103.26 21.0755 103.602 21.4174 104.024 21.4174C104.446 21.4174 104.788 21.0755 104.788 20.6537Z" fill="white"/>
<path d="M113.89 17.5924C113.89 18.7711 113.564 19.7107 112.965 20.4154C112.312 21.1788 111.492 21.5353 110.404 21.5353C109.366 21.5353 108.55 21.183 107.951 20.4154C107.353 19.7107 107.026 18.7669 107.026 17.6511C107.026 16.4724 107.353 15.5328 107.951 14.7694C108.55 14.006 109.424 13.6494 110.458 13.6494C111.492 13.6494 112.312 14.0018 112.911 14.7694C113.564 15.5328 113.89 16.4766 113.89 17.5924ZM112.254 17.6511C112.254 16.9464 112.091 16.355 111.819 15.8852C111.492 15.2979 111.057 15.0043 110.454 15.0043C109.856 15.0043 109.362 15.2979 109.036 15.8852C108.764 16.355 108.6 17.0051 108.6 17.7098C108.6 18.4145 108.764 19.006 109.036 19.4758C109.362 20.063 109.852 20.3566 110.454 20.3566C111.053 20.3566 111.492 20.063 111.819 19.417C112.145 18.9472 112.254 18.3013 112.254 17.6511Z" fill="white"/>
<path d="M121.299 20.5934C121.308 21.0005 120.999 21.3591 120.592 21.3591H120.44C120.186 21.3591 119.973 21.1702 119.942 20.9187L119.891 20.5122C119.889 20.4928 119.873 20.4783 119.853 20.4783C119.84 20.4783 119.829 20.4846 119.821 20.4949C119.333 21.1885 118.679 21.5353 117.816 21.5353C117.163 21.5353 116.615 21.3004 116.234 20.8306C115.853 20.4196 115.69 19.891 115.69 19.2996C115.69 18.36 116.016 17.7098 116.782 17.1813C117.468 16.7257 118.414 16.491 119.665 16.4772C119.73 16.4765 119.782 16.424 119.782 16.3591C119.782 15.3608 119.293 14.8868 118.364 14.8868C117.952 14.8868 117.576 14.9465 117.237 15.0658C116.887 15.189 116.455 15.0414 116.351 14.6849C116.284 14.4544 116.376 14.2037 116.591 14.0963C117.165 13.8094 117.828 13.6494 118.636 13.6494C120.435 13.6494 121.36 14.7065 121.36 16.766V19.5303C121.306 19.9416 121.293 20.2933 121.299 20.5934ZM119.757 18.9366C119.771 18.8656 119.778 18.7933 119.778 18.7209C119.778 18.1241 119.3 17.6095 118.711 17.7082C117.723 17.8741 117.217 18.3734 117.217 19.1821C117.217 19.2191 117.218 19.2551 117.22 19.2902C117.247 19.8454 117.695 20.3566 118.251 20.3566C118.577 20.3566 118.904 20.2392 119.176 20.0043C119.448 19.7694 119.666 19.4758 119.72 19.1234L119.757 18.9366Z" fill="white"/>
<path d="M130.097 20.6315C130.104 21.0228 129.799 21.3595 129.407 21.3595H129.362C129.032 21.3595 128.76 21.1 128.745 20.7702L128.719 20.2134C128.718 20.1952 128.703 20.1808 128.685 20.1808C128.672 20.1808 128.66 20.1887 128.654 20.2007C128.217 21.1263 127.455 21.5357 126.429 21.5357C125.612 21.5357 124.901 21.1833 124.357 20.4786C123.813 19.7739 123.541 18.8302 123.541 17.7144C123.541 16.477 123.813 15.5374 124.466 14.7739C125.064 14.0693 125.776 13.7169 126.592 13.7169C127.509 13.7169 128.162 14.0631 128.544 14.6982C128.551 14.7087 128.562 14.7152 128.574 14.7152C128.593 14.7152 128.609 14.6997 128.609 14.6806V11.1836C128.609 10.7619 128.951 10.4199 129.373 10.4199C129.794 10.4199 130.136 10.7619 130.136 11.1836V19.3629C130.104 19.8243 130.091 20.2429 130.097 20.6315ZM128.558 18.2429V17.0055C128.558 16.6496 128.478 16.2948 128.324 15.9739C128.231 15.7788 128.112 15.6103 127.96 15.4786C127.688 15.185 127.307 15.0676 126.922 15.0676C126.324 15.0676 125.884 15.3025 125.558 15.831C125.231 16.3008 125.068 16.951 125.068 17.7144C125.068 18.4778 125.231 19.0693 125.558 19.539C125.884 20.0088 126.32 20.3025 126.922 20.3025C127.412 20.3025 127.847 20.1263 128.123 19.7152C128.395 19.2412 128.558 18.7714 128.558 18.2429Z" fill="white"/>
<path d="M143.332 17.5924C143.332 18.7711 143.005 19.7107 142.407 20.4154C141.754 21.1788 140.934 21.5353 139.845 21.5353C138.808 21.5353 137.991 21.183 137.393 20.4154C136.794 19.7107 136.468 18.7669 136.468 17.6511C136.468 16.4724 136.794 15.5328 137.393 14.7694C137.991 14.006 138.866 13.6494 139.9 13.6494C140.937 13.6494 141.754 14.0018 142.352 14.7694C143.06 15.5328 143.332 16.4766 143.332 17.5924ZM141.75 17.6511C141.75 16.9464 141.586 16.355 141.314 15.8852C140.988 15.2979 140.553 15.0043 139.95 15.0043C139.352 15.0043 138.858 15.2979 138.532 15.8852C138.26 16.355 138.096 17.0051 138.096 17.7098C138.096 18.4145 138.26 19.006 138.532 19.4758C138.858 20.063 139.348 20.3566 139.95 20.3566C140.549 20.3566 140.988 20.063 141.314 19.417C141.586 18.9472 141.75 18.3013 141.75 17.6511Z" fill="white"/>
<path d="M151.672 21.3609C151.672 21.3597 151.671 21.3588 151.67 21.3588H150.909C150.487 21.3588 150.145 21.0169 150.145 20.5951V17.0635C150.145 15.7673 149.655 15.0627 148.726 15.0627C148.291 15.0627 147.91 15.2388 147.634 15.5912C147.362 15.9435 147.199 16.3546 147.199 16.8873V20.5951C147.199 21.0169 146.857 21.3588 146.435 21.3588C146.013 21.3588 145.671 21.0169 145.671 20.5951V16.0064C145.671 15.5687 145.671 15.1021 145.654 14.6093C145.641 14.2193 145.949 13.8882 146.339 13.8882H146.391C146.721 13.8882 146.993 14.1477 147.008 14.4775L147.034 15.0343C147.035 15.0525 147.05 15.0668 147.068 15.0668C147.081 15.0668 147.094 15.0591 147.099 15.0471C147.263 14.7035 147.532 14.4165 147.906 14.186C148.341 13.8924 148.777 13.7749 149.325 13.7749C149.978 13.7749 150.526 14.0098 150.961 14.4796C151.505 15.0081 151.777 15.8932 151.777 16.9502V21.3105C151.777 21.3395 151.754 21.363 151.725 21.363H151.674C151.673 21.363 151.672 21.362 151.672 21.3609Z" fill="white"/>
<path d="M162.054 14.5891C162.041 14.8871 161.795 15.1217 161.497 15.1217H161.204C160.727 15.1217 160.34 15.5088 160.34 15.9862V18.771C160.34 19.7106 160.666 20.1846 161.265 20.1846C161.63 20.1846 161.987 20.4723 162.003 20.8372L162.006 20.9041C162.018 21.1772 161.852 21.4322 161.582 21.4801C161.36 21.5197 161.112 21.5395 160.825 21.5395C160.227 21.5395 159.733 21.3633 159.407 20.9523C159.08 20.5412 158.917 19.8952 158.917 18.9514V15.7307C158.917 15.4291 158.673 15.1846 158.371 15.1846C158.069 15.1846 157.825 14.9402 157.825 14.6386V14.4661C157.825 14.1795 158.057 13.9472 158.344 13.9472C158.63 13.9472 158.863 13.7149 158.863 13.4284V13.1565C158.863 12.8212 159.081 12.5251 159.402 12.4265C159.893 12.2755 160.39 12.6427 160.39 13.1565V13.2058C160.39 13.6477 160.748 14.0059 161.19 14.0059H161.497C161.815 14.0059 162.069 14.2714 162.054 14.5891Z" fill="white"/>
<path d="M170.211 20.5946C170.211 21.0165 169.869 21.3587 169.448 21.3587C169.026 21.3587 168.684 21.0169 168.684 20.5953V17.1221C168.684 15.7673 168.194 15.1213 167.266 15.1213C166.558 15.1213 166.065 15.5324 165.793 16.3C165.738 16.4761 165.738 16.6523 165.738 16.8872V20.6537C165.738 21.0755 165.396 21.4174 164.974 21.4174C164.553 21.4174 164.211 21.0755 164.211 20.6537V11.2374C164.211 10.8156 164.553 10.4736 164.974 10.4736C165.396 10.4736 165.738 10.8156 165.738 11.2374V14.9691C165.738 14.9883 165.754 15.0038 165.773 15.0038C165.785 15.0038 165.796 14.9973 165.803 14.9868C166.292 14.176 167 13.7664 167.864 13.7664C168.517 13.7664 169.011 14.0013 169.446 14.4711C169.99 15.0584 170.208 15.8847 170.208 17.0005L170.211 20.5946Z" fill="white"/>
<path d="M178.661 17.2986V17.2986C178.661 17.7477 178.289 18.062 177.84 18.062H175.858C174.818 18.062 173.87 19.0547 174.627 19.7692V19.7692C175.008 20.1215 175.498 20.2977 176.154 20.2977C176.573 20.2977 176.954 20.2567 177.309 20.1746C177.676 20.0894 178.074 20.2993 178.142 20.6705V20.6705C178.191 20.9368 178.053 21.2056 177.797 21.2936C177.243 21.4842 176.612 21.5938 175.882 21.5938C174.79 21.5938 173.974 21.2415 173.321 20.5955C172.722 19.8908 172.396 19.0058 172.396 17.8313C172.396 16.7113 172.668 15.7717 173.267 15.0083C173.865 14.1861 174.685 13.8296 175.719 13.8296C176.699 13.8296 177.464 14.2407 178.008 15.0083C178.444 15.5326 178.661 16.359 178.661 17.2986ZM175.854 16.8287C176.591 16.8287 177.223 16.2025 176.916 15.5326V15.5326C176.644 15.0628 176.263 14.8279 175.661 14.8279C175.171 14.8279 174.736 15.0628 174.405 15.5326V15.5326C173.952 16.1197 174.615 16.8287 175.356 16.8287H175.854Z" fill="white"/>
</svg>
