<svg width="41" height="40" viewBox="0 0 41 40" fill="none" xmlns="http://www.w3.org/2000/svg">
<rect x="1.5" y="1" width="38" height="38" rx="19" stroke="#0C0B0B" stroke-width="2"/>
<path d="M25.3115 22.2764C25.3889 22.3537 25.3987 22.4736 25.3408 22.5615L25.3115 22.5977L20.6602 27.248C20.5828 27.3254 20.4639 27.3352 20.376 27.2773L20.3398 27.248L15.6895 22.5977C15.645 22.5532 15.6231 22.496 15.623 22.4375C15.623 22.3788 15.6451 22.3208 15.6895 22.2764L15.6895 22.2754C15.7669 22.1988 15.886 22.1903 15.9736 22.248L16.0098 22.2764L19.4199 25.6875L20.2734 26.541L20.2734 12.9121C20.2735 12.7871 20.375 12.6857 20.5 12.6855C20.6251 12.6855 20.7265 12.787 20.7266 12.9121L20.7266 26.541L24.9912 22.2764C25.0689 22.199 25.1884 22.1897 25.2764 22.248L25.3115 22.2764Z" fill="#0C0B0B" stroke="#0C0B0B"/>
</svg>
