<svg width="216" height="215" viewBox="0 0 216 215" fill="none" xmlns="http://www.w3.org/2000/svg">
<g filter="url(#filter0_d_595_241)">
<path d="M114.685 4.19141C141.313 4.85278 162.706 26.3668 162.706 52.8022C162.706 79.2376 140.633 101.432 113.413 101.432C86.1932 101.432 64.1196 123.209 64.1196 150.063C64.1196 176.916 85.513 198.012 112.141 198.674C112.565 198.693 112.989 198.693 113.413 198.693C113.837 198.693 114.261 198.693 114.685 198.674C168.553 198.012 212 154.731 212 101.432C212 48.1337 168.553 4.85278 114.685 4.19141ZM113.413 164.652C105.25 164.652 98.625 158.116 98.625 150.063C98.625 142.01 105.25 135.474 113.413 135.474C121.576 135.474 128.201 142.01 128.201 150.063C128.201 158.116 121.576 164.652 113.413 164.652Z" fill="url(#paint0_linear_595_241)"/>
<path d="M133.165 7.15234C177.603 16.1528 211 54.9515 211 101.433C210.999 154.171 168.006 197.019 114.672 197.674H114.656L114.639 197.675C114.242 197.693 113.84 197.693 113.413 197.693C112.985 197.693 112.584 197.693 112.187 197.675L112.176 197.674H112.167C86.0613 197.025 65.1196 176.354 65.1196 150.062C65.1198 123.774 86.7325 102.433 113.413 102.433C141.178 102.433 163.707 79.7966 163.707 52.8018C163.706 32.3074 151.114 14.7256 133.165 7.15234ZM113.413 134.474C104.71 134.474 97.6256 141.445 97.6255 150.062C97.6255 158.681 104.71 165.651 113.413 165.651C122.115 165.651 129.201 158.681 129.201 150.062C129.201 141.444 122.115 134.474 113.413 134.474Z" stroke="url(#paint1_linear_595_241)" stroke-width="2"/>
</g>
<g filter="url(#filter1_d_595_241)">
<path d="M115.859 4.21086C115.435 4.19141 115.011 4.19141 114.587 4.19141C114.163 4.19141 113.739 4.19141 113.315 4.21086C59.4472 4.87223 16 48.1532 16 101.452C16 154.751 59.4472 198.032 113.315 198.693C86.6868 198.032 65.2934 176.518 65.2934 150.082C65.2934 123.647 87.367 101.452 114.587 101.452C141.807 101.452 163.88 79.6753 163.88 52.8217C163.88 25.968 142.487 4.87223 115.859 4.21086ZM114.587 67.4107C106.424 67.4107 99.7988 60.8748 99.7988 52.8217C99.7988 44.7685 106.424 38.2326 114.587 38.2326C122.75 38.2326 129.375 44.7685 129.375 52.8217C129.375 60.8748 122.75 67.4107 114.587 67.4107Z" fill="url(#paint2_linear_595_241)"/>
<path d="M114.587 5.19141C115.015 5.19141 115.415 5.19175 115.812 5.20996H115.823L115.834 5.21094C141.939 5.85943 162.88 26.5296 162.88 52.8213C162.88 79.1099 141.267 100.452 114.587 100.452C86.8221 100.452 64.2931 123.087 64.293 150.082C64.293 170.576 76.8847 188.157 94.833 195.73C50.3961 186.729 17.0001 147.932 17 101.452C17 49.126 59.3246 6.53532 112.079 5.2334L113.327 5.21094H113.344L113.361 5.20996C113.758 5.19175 114.159 5.19141 114.587 5.19141ZM114.587 37.2324C105.885 37.2324 98.799 44.2033 98.7988 52.8213C98.7988 61.4395 105.884 68.4111 114.587 68.4111C123.289 68.4111 130.375 61.4394 130.375 52.8213C130.375 44.2033 123.289 37.2325 114.587 37.2324Z" stroke="url(#paint3_linear_595_241)" stroke-width="2"/>
</g>
<defs>
<filter id="filter0_d_595_241" x="48.1196" y="0.191406" width="167.88" height="214.502" filterUnits="userSpaceOnUse" color-interpolation-filters="sRGB">
<feFlood flood-opacity="0" result="BackgroundImageFix"/>
<feColorMatrix in="SourceAlpha" type="matrix" values="0 0 0 0 0 0 0 0 0 0 0 0 0 0 0 0 0 0 127 0" result="hardAlpha"/>
<feOffset dx="-6" dy="6"/>
<feGaussianBlur stdDeviation="5"/>
<feComposite in2="hardAlpha" operator="out"/>
<feColorMatrix type="matrix" values="0 0 0 0 0 0 0 0 0 0 0 0 0 0 0 0 0 0 0.15 0"/>
<feBlend mode="normal" in2="BackgroundImageFix" result="effect1_dropShadow_595_241"/>
<feBlend mode="normal" in="SourceGraphic" in2="effect1_dropShadow_595_241" result="shape"/>
</filter>
<filter id="filter1_d_595_241" x="0" y="0.191406" width="167.88" height="214.501" filterUnits="userSpaceOnUse" color-interpolation-filters="sRGB">
<feFlood flood-opacity="0" result="BackgroundImageFix"/>
<feColorMatrix in="SourceAlpha" type="matrix" values="0 0 0 0 0 0 0 0 0 0 0 0 0 0 0 0 0 0 127 0" result="hardAlpha"/>
<feOffset dx="-6" dy="6"/>
<feGaussianBlur stdDeviation="5"/>
<feComposite in2="hardAlpha" operator="out"/>
<feColorMatrix type="matrix" values="0 0 0 0 0 0 0 0 0 0 0 0 0 0 0 0 0 0 0.15 0"/>
<feBlend mode="normal" in2="BackgroundImageFix" result="effect1_dropShadow_595_241"/>
<feBlend mode="normal" in="SourceGraphic" in2="effect1_dropShadow_595_241" result="shape"/>
</filter>
<linearGradient id="paint0_linear_595_241" x1="122.915" y1="140.868" x2="199.787" y2="15.5129" gradientUnits="userSpaceOnUse">
<stop/>
<stop offset="1" stop-color="#A7CB4F"/>
</linearGradient>
<linearGradient id="paint1_linear_595_241" x1="121.91" y1="95.9929" x2="166.044" y2="4.55143" gradientUnits="userSpaceOnUse">
<stop stop-opacity="0.03"/>
<stop offset="1" stop-color="white" stop-opacity="0.7"/>
</linearGradient>
<linearGradient id="paint2_linear_595_241" x1="58.8336" y1="206.965" x2="117.306" y2="4.60608" gradientUnits="userSpaceOnUse">
<stop stop-opacity="0.99"/>
<stop offset="1" stop-color="white" stop-opacity="0.5"/>
</linearGradient>
<linearGradient id="paint3_linear_595_241" x1="73.7907" y1="95.9929" x2="117.924" y2="4.55144" gradientUnits="userSpaceOnUse">
<stop stop-opacity="0.03"/>
<stop offset="1" stop-color="white" stop-opacity="0.7"/>
</linearGradient>
</defs>
</svg>
