<svg width="243" height="214" viewBox="0 0 243 214" fill="none" xmlns="http://www.w3.org/2000/svg">
<g clip-path="url(#clip0_598_429)">
<path d="M243 0H0V214H243V0Z" fill="white"/>
<path d="M5.92683 208.78H0V214H5.92683V208.78Z" fill="black"/>
<path d="M5.92683 203.561H0V208.781H5.92683V203.561Z" fill="black"/>
<path d="M5.92683 198.341H0V203.561H5.92683V198.341Z" fill="black"/>
<path d="M5.92683 193.122H0V198.342H5.92683V193.122Z" fill="black"/>
<path d="M5.92683 187.902H0V193.122H5.92683V187.902Z" fill="black"/>
<path d="M5.92683 182.683H0V187.903H5.92683V182.683Z" fill="black"/>
<path d="M5.92683 177.463H0V182.683H5.92683V177.463Z" fill="black"/>
<path d="M5.92683 161.805H0V167.024H5.92683V161.805Z" fill="black"/>
<path d="M5.92683 156.585H0V161.805H5.92683V156.585Z" fill="black"/>
<path d="M5.92683 151.366H0V156.585H5.92683V151.366Z" fill="black"/>
<path d="M5.92683 140.927H0V146.146H5.92683V140.927Z" fill="black"/>
<path d="M5.92683 125.268H0V130.488H5.92683V125.268Z" fill="black"/>
<path d="M5.92683 120.049H0V125.268H5.92683V120.049Z" fill="black"/>
<path d="M5.92683 114.829H0V120.049H5.92683V114.829Z" fill="black"/>
<path d="M5.92683 109.61H0V114.829H5.92683V109.61Z" fill="black"/>
<path d="M5.92683 99.1709H0V104.39H5.92683V99.1709Z" fill="black"/>
<path d="M5.92683 93.9512H0V99.1707H5.92683V93.9512Z" fill="black"/>
<path d="M5.92683 88.7319H0V93.9514H5.92683V88.7319Z" fill="black"/>
<path d="M5.92683 83.5122H0V88.7317H5.92683V83.5122Z" fill="black"/>
<path d="M5.92683 78.2925H0V83.512H5.92683V78.2925Z" fill="black"/>
<path d="M5.92683 73.0732H0V78.2928H5.92683V73.0732Z" fill="black"/>
<path d="M5.92683 67.8535H0V73.073H5.92683V67.8535Z" fill="black"/>
<path d="M5.92683 62.6343H0V67.8538H5.92683V62.6343Z" fill="black"/>
<path d="M5.92683 52.1953H0V57.4148H5.92683V52.1953Z" fill="black"/>
<path d="M5.92683 46.9756H0V52.1951H5.92683V46.9756Z" fill="black"/>
<path d="M5.92683 31.3169H0V36.5364H5.92683V31.3169Z" fill="black"/>
<path d="M5.92683 26.0977H0V31.3172H5.92683V26.0977Z" fill="black"/>
<path d="M5.92683 20.8779H0V26.0974H5.92683V20.8779Z" fill="black"/>
<path d="M5.92683 15.6587H0V20.8782H5.92683V15.6587Z" fill="black"/>
<path d="M5.92683 10.439H0V15.6585H5.92683V10.439Z" fill="black"/>
<path d="M5.92683 5.21973H0V10.4392H5.92683V5.21973Z" fill="black"/>
<path d="M5.92683 0H0V5.21951H5.92683V0Z" fill="black"/>
<path d="M11.8536 208.78H5.92676V214H11.8536V208.78Z" fill="black"/>
<path d="M11.8536 177.463H5.92676V182.683H11.8536V177.463Z" fill="black"/>
<path d="M11.8536 156.585H5.92676V161.805H11.8536V156.585Z" fill="black"/>
<path d="M11.8536 146.146H5.92676V151.366H11.8536V146.146Z" fill="black"/>
<path d="M11.8536 140.927H5.92676V146.146H11.8536V140.927Z" fill="black"/>
<path d="M11.8536 120.049H5.92676V125.268H11.8536V120.049Z" fill="black"/>
<path d="M11.8536 93.9512H5.92676V99.1707H11.8536V93.9512Z" fill="black"/>
<path d="M11.8536 83.5122H5.92676V88.7317H11.8536V83.5122Z" fill="black"/>
<path d="M11.8536 78.2925H5.92676V83.512H11.8536V78.2925Z" fill="black"/>
<path d="M11.8536 73.0732H5.92676V78.2928H11.8536V73.0732Z" fill="black"/>
<path d="M11.8536 67.8535H5.92676V73.073H11.8536V67.8535Z" fill="black"/>
<path d="M11.8536 62.6343H5.92676V67.8538H11.8536V62.6343Z" fill="black"/>
<path d="M11.8536 57.4146H5.92676V62.6341H11.8536V57.4146Z" fill="black"/>
<path d="M11.8536 41.7559H5.92676V46.9754H11.8536V41.7559Z" fill="black"/>
<path d="M11.8536 31.3169H5.92676V36.5364H11.8536V31.3169Z" fill="black"/>
<path d="M11.8536 0H5.92676V5.21951H11.8536V0Z" fill="black"/>
<path d="M17.7803 208.78H11.8535V214H17.7803V208.78Z" fill="black"/>
<path d="M17.7803 198.341H11.8535V203.561H17.7803V198.341Z" fill="black"/>
<path d="M17.7803 193.122H11.8535V198.342H17.7803V193.122Z" fill="black"/>
<path d="M17.7803 187.902H11.8535V193.122H17.7803V187.902Z" fill="black"/>
<path d="M17.7803 177.463H11.8535V182.683H17.7803V177.463Z" fill="black"/>
<path d="M17.7803 167.024H11.8535V172.244H17.7803V167.024Z" fill="black"/>
<path d="M17.7803 161.805H11.8535V167.024H17.7803V161.805Z" fill="black"/>
<path d="M17.7803 156.585H11.8535V161.805H17.7803V156.585Z" fill="black"/>
<path d="M17.7803 151.366H11.8535V156.585H17.7803V151.366Z" fill="black"/>
<path d="M17.7803 146.146H11.8535V151.366H17.7803V146.146Z" fill="black"/>
<path d="M17.7803 140.927H11.8535V146.146H17.7803V140.927Z" fill="black"/>
<path d="M17.7803 125.268H11.8535V130.488H17.7803V125.268Z" fill="black"/>
<path d="M17.7803 93.9512H11.8535V99.1707H17.7803V93.9512Z" fill="black"/>
<path d="M17.7803 67.8535H11.8535V73.073H17.7803V67.8535Z" fill="black"/>
<path d="M17.7803 57.4146H11.8535V62.6341H17.7803V57.4146Z" fill="black"/>
<path d="M17.7803 41.7559H11.8535V46.9754H17.7803V41.7559Z" fill="black"/>
<path d="M17.7803 31.3169H11.8535V36.5364H17.7803V31.3169Z" fill="black"/>
<path d="M17.7803 20.8779H11.8535V26.0974H17.7803V20.8779Z" fill="black"/>
<path d="M17.7803 15.6587H11.8535V20.8782H17.7803V15.6587Z" fill="black"/>
<path d="M17.7803 10.439H11.8535V15.6585H17.7803V10.439Z" fill="black"/>
<path d="M17.7803 0H11.8535V5.21951H17.7803V0Z" fill="black"/>
<path d="M23.7071 208.78H17.7803V214H23.7071V208.78Z" fill="black"/>
<path d="M23.7071 198.341H17.7803V203.561H23.7071V198.341Z" fill="black"/>
<path d="M23.7071 193.122H17.7803V198.342H23.7071V193.122Z" fill="black"/>
<path d="M23.7071 187.902H17.7803V193.122H23.7071V187.902Z" fill="black"/>
<path d="M23.7071 177.463H17.7803V182.683H23.7071V177.463Z" fill="black"/>
<path d="M23.7071 135.708H17.7803V140.927H23.7071V135.708Z" fill="black"/>
<path d="M23.7071 120.049H17.7803V125.268H23.7071V120.049Z" fill="black"/>
<path d="M23.7071 114.829H17.7803V120.049H23.7071V114.829Z" fill="black"/>
<path d="M23.7071 104.39H17.7803V109.61H23.7071V104.39Z" fill="black"/>
<path d="M23.7071 99.1709H17.7803V104.39H23.7071V99.1709Z" fill="black"/>
<path d="M23.7071 93.9512H17.7803V99.1707H23.7071V93.9512Z" fill="black"/>
<path d="M23.7071 88.7319H17.7803V93.9514H23.7071V88.7319Z" fill="black"/>
<path d="M23.7071 83.5122H17.7803V88.7317H23.7071V83.5122Z" fill="black"/>
<path d="M23.7071 78.2925H17.7803V83.512H23.7071V78.2925Z" fill="black"/>
<path d="M23.7071 73.0732H17.7803V78.2928H23.7071V73.0732Z" fill="black"/>
<path d="M23.7071 67.8535H17.7803V73.073H23.7071V67.8535Z" fill="black"/>
<path d="M23.7071 62.6343H17.7803V67.8538H23.7071V62.6343Z" fill="black"/>
<path d="M23.7071 57.4146H17.7803V62.6341H23.7071V57.4146Z" fill="black"/>
<path d="M23.7071 52.1953H17.7803V57.4148H23.7071V52.1953Z" fill="black"/>
<path d="M23.7071 31.3169H17.7803V36.5364H23.7071V31.3169Z" fill="black"/>
<path d="M23.7071 20.8779H17.7803V26.0974H23.7071V20.8779Z" fill="black"/>
<path d="M23.7071 15.6587H17.7803V20.8782H23.7071V15.6587Z" fill="black"/>
<path d="M23.7071 10.439H17.7803V15.6585H23.7071V10.439Z" fill="black"/>
<path d="M23.7071 0H17.7803V5.21951H23.7071V0Z" fill="black"/>
<path d="M29.6343 208.78H23.7075V214H29.6343V208.78Z" fill="black"/>
<path d="M29.6343 198.341H23.7075V203.561H29.6343V198.341Z" fill="black"/>
<path d="M29.6343 193.122H23.7075V198.342H29.6343V193.122Z" fill="black"/>
<path d="M29.6343 187.902H23.7075V193.122H29.6343V187.902Z" fill="black"/>
<path d="M29.6343 177.463H23.7075V182.683H29.6343V177.463Z" fill="black"/>
<path d="M29.6343 156.585H23.7075V161.805H29.6343V156.585Z" fill="black"/>
<path d="M29.6343 140.927H23.7075V146.146H29.6343V140.927Z" fill="black"/>
<path d="M29.6343 135.708H23.7075V140.927H29.6343V135.708Z" fill="black"/>
<path d="M29.6343 130.488H23.7075V135.707H29.6343V130.488Z" fill="black"/>
<path d="M29.6343 120.049H23.7075V125.268H29.6343V120.049Z" fill="black"/>
<path d="M29.6343 104.39H23.7075V109.61H29.6343V104.39Z" fill="black"/>
<path d="M29.6343 99.1709H23.7075V104.39H29.6343V99.1709Z" fill="black"/>
<path d="M29.6343 93.9512H23.7075V99.1707H29.6343V93.9512Z" fill="black"/>
<path d="M29.6343 88.7319H23.7075V93.9514H29.6343V88.7319Z" fill="black"/>
<path d="M29.6343 73.0732H23.7075V78.2928H29.6343V73.0732Z" fill="black"/>
<path d="M29.6343 67.8535H23.7075V73.073H29.6343V67.8535Z" fill="black"/>
<path d="M29.6343 62.6343H23.7075V67.8538H29.6343V62.6343Z" fill="black"/>
<path d="M29.6343 52.1953H23.7075V57.4148H29.6343V52.1953Z" fill="black"/>
<path d="M29.6343 46.9756H23.7075V52.1951H29.6343V46.9756Z" fill="black"/>
<path d="M29.6343 41.7559H23.7075V46.9754H29.6343V41.7559Z" fill="black"/>
<path d="M29.6343 31.3169H23.7075V36.5364H29.6343V31.3169Z" fill="black"/>
<path d="M29.6343 20.8779H23.7075V26.0974H29.6343V20.8779Z" fill="black"/>
<path d="M29.6343 15.6587H23.7075V20.8782H29.6343V15.6587Z" fill="black"/>
<path d="M29.6343 10.439H23.7075V15.6585H29.6343V10.439Z" fill="black"/>
<path d="M29.6343 0H23.7075V5.21951H29.6343V0Z" fill="black"/>
<path d="M35.5611 208.78H29.6343V214H35.5611V208.78Z" fill="black"/>
<path d="M35.5611 177.463H29.6343V182.683H35.5611V177.463Z" fill="black"/>
<path d="M35.5611 161.805H29.6343V167.024H35.5611V161.805Z" fill="black"/>
<path d="M35.5611 156.585H29.6343V161.805H35.5611V156.585Z" fill="black"/>
<path d="M35.5611 146.146H29.6343V151.366H35.5611V146.146Z" fill="black"/>
<path d="M35.5611 140.927H29.6343V146.146H35.5611V140.927Z" fill="black"/>
<path d="M35.5611 130.488H29.6343V135.707H35.5611V130.488Z" fill="black"/>
<path d="M35.5611 109.61H29.6343V114.829H35.5611V109.61Z" fill="black"/>
<path d="M35.5611 99.1709H29.6343V104.39H35.5611V99.1709Z" fill="black"/>
<path d="M35.5611 93.9512H29.6343V99.1707H35.5611V93.9512Z" fill="black"/>
<path d="M35.5611 88.7319H29.6343V93.9514H35.5611V88.7319Z" fill="black"/>
<path d="M35.5611 83.5122H29.6343V88.7317H35.5611V83.5122Z" fill="black"/>
<path d="M35.5611 78.2925H29.6343V83.512H35.5611V78.2925Z" fill="black"/>
<path d="M35.5611 73.0732H29.6343V78.2928H35.5611V73.0732Z" fill="black"/>
<path d="M35.5611 67.8535H29.6343V73.073H35.5611V67.8535Z" fill="black"/>
<path d="M35.5611 62.6343H29.6343V67.8538H35.5611V62.6343Z" fill="black"/>
<path d="M35.5611 57.4146H29.6343V62.6341H35.5611V57.4146Z" fill="black"/>
<path d="M35.5611 52.1953H29.6343V57.4148H35.5611V52.1953Z" fill="black"/>
<path d="M35.5611 41.7559H29.6343V46.9754H35.5611V41.7559Z" fill="black"/>
<path d="M35.5611 31.3169H29.6343V36.5364H35.5611V31.3169Z" fill="black"/>
<path d="M35.5611 0H29.6343V5.21951H35.5611V0Z" fill="black"/>
<path d="M41.4879 208.78H35.561V214H41.4879V208.78Z" fill="black"/>
<path d="M41.4879 203.561H35.561V208.781H41.4879V203.561Z" fill="black"/>
<path d="M41.4879 198.341H35.561V203.561H41.4879V198.341Z" fill="black"/>
<path d="M41.4879 193.122H35.561V198.342H41.4879V193.122Z" fill="black"/>
<path d="M41.4879 187.902H35.561V193.122H41.4879V187.902Z" fill="black"/>
<path d="M41.4879 182.683H35.561V187.903H41.4879V182.683Z" fill="black"/>
<path d="M41.4879 177.463H35.561V182.683H41.4879V177.463Z" fill="black"/>
<path d="M41.4879 167.024H35.561V172.244H41.4879V167.024Z" fill="black"/>
<path d="M41.4879 156.585H35.561V161.805H41.4879V156.585Z" fill="black"/>
<path d="M41.4879 146.146H35.561V151.366H41.4879V146.146Z" fill="black"/>
<path d="M41.4879 135.708H35.561V140.927H41.4879V135.708Z" fill="black"/>
<path d="M41.4879 125.268H35.561V130.488H41.4879V125.268Z" fill="black"/>
<path d="M41.4879 114.829H35.561V120.049H41.4879V114.829Z" fill="black"/>
<path d="M41.4879 104.39H35.561V109.61H41.4879V104.39Z" fill="black"/>
<path d="M41.4879 93.9512H35.561V99.1707H41.4879V93.9512Z" fill="black"/>
<path d="M41.4879 83.5122H35.561V88.7317H41.4879V83.5122Z" fill="black"/>
<path d="M41.4879 73.0732H35.561V78.2928H41.4879V73.0732Z" fill="black"/>
<path d="M41.4879 62.6343H35.561V67.8538H41.4879V62.6343Z" fill="black"/>
<path d="M41.4879 52.1953H35.561V57.4148H41.4879V52.1953Z" fill="black"/>
<path d="M41.4879 31.3169H35.561V36.5364H41.4879V31.3169Z" fill="black"/>
<path d="M41.4879 26.0977H35.561V31.3172H41.4879V26.0977Z" fill="black"/>
<path d="M41.4879 20.8779H35.561V26.0974H41.4879V20.8779Z" fill="black"/>
<path d="M41.4879 15.6587H35.561V20.8782H41.4879V15.6587Z" fill="black"/>
<path d="M41.4879 10.439H35.561V15.6585H41.4879V10.439Z" fill="black"/>
<path d="M41.4879 5.21973H35.561V10.4392H41.4879V5.21973Z" fill="black"/>
<path d="M41.4879 0H35.561V5.21951H41.4879V0Z" fill="black"/>
<path d="M47.4146 156.585H41.4878V161.805H47.4146V156.585Z" fill="black"/>
<path d="M47.4146 151.366H41.4878V156.585H47.4146V151.366Z" fill="black"/>
<path d="M47.4146 140.927H41.4878V146.146H47.4146V140.927Z" fill="black"/>
<path d="M47.4146 135.708H41.4878V140.927H47.4146V135.708Z" fill="black"/>
<path d="M47.4146 120.049H41.4878V125.268H47.4146V120.049Z" fill="black"/>
<path d="M47.4146 114.829H41.4878V120.049H47.4146V114.829Z" fill="black"/>
<path d="M47.4146 109.61H41.4878V114.829H47.4146V109.61Z" fill="black"/>
<path d="M47.4146 93.9512H41.4878V99.1707H47.4146V93.9512Z" fill="black"/>
<path d="M47.4146 88.7319H41.4878V93.9514H47.4146V88.7319Z" fill="black"/>
<path d="M47.4146 83.5122H41.4878V88.7317H47.4146V83.5122Z" fill="black"/>
<path d="M47.4146 78.2925H41.4878V83.512H47.4146V78.2925Z" fill="black"/>
<path d="M47.4146 57.4146H41.4878V62.6341H47.4146V57.4146Z" fill="black"/>
<path d="M47.4146 52.1953H41.4878V57.4148H47.4146V52.1953Z" fill="black"/>
<path d="M47.4146 41.7559H41.4878V46.9754H47.4146V41.7559Z" fill="black"/>
<path d="M53.3414 203.561H47.4146V208.781H53.3414V203.561Z" fill="black"/>
<path d="M53.3414 198.341H47.4146V203.561H53.3414V198.341Z" fill="black"/>
<path d="M53.3414 187.902H47.4146V193.122H53.3414V187.902Z" fill="black"/>
<path d="M53.3414 182.683H47.4146V187.903H53.3414V182.683Z" fill="black"/>
<path d="M53.3414 177.463H47.4146V182.683H53.3414V177.463Z" fill="black"/>
<path d="M53.3414 161.805H47.4146V167.024H53.3414V161.805Z" fill="black"/>
<path d="M53.3414 156.585H47.4146V161.805H53.3414V156.585Z" fill="black"/>
<path d="M53.3414 146.146H47.4146V151.366H53.3414V146.146Z" fill="black"/>
<path d="M53.3414 135.708H47.4146V140.927H53.3414V135.708Z" fill="black"/>
<path d="M53.3414 130.488H47.4146V135.707H53.3414V130.488Z" fill="black"/>
<path d="M53.3414 125.268H47.4146V130.488H53.3414V125.268Z" fill="black"/>
<path d="M53.3414 109.61H47.4146V114.829H53.3414V109.61Z" fill="black"/>
<path d="M53.3414 73.0732H47.4146V78.2928H53.3414V73.0732Z" fill="black"/>
<path d="M53.3414 67.8535H47.4146V73.073H53.3414V67.8535Z" fill="black"/>
<path d="M53.3414 62.6343H47.4146V67.8538H53.3414V62.6343Z" fill="black"/>
<path d="M53.3414 52.1953H47.4146V57.4148H53.3414V52.1953Z" fill="black"/>
<path d="M53.3414 46.9756H47.4146V52.1951H53.3414V46.9756Z" fill="black"/>
<path d="M53.3414 36.5366H47.4146V41.7561H53.3414V36.5366Z" fill="black"/>
<path d="M53.3414 15.6587H47.4146V20.8782H53.3414V15.6587Z" fill="black"/>
<path d="M53.3414 5.21973H47.4146V10.4392H53.3414V5.21973Z" fill="black"/>
<path d="M53.3414 0H47.4146V5.21951H53.3414V0Z" fill="black"/>
<path d="M59.2681 208.78H53.3413V214H59.2681V208.78Z" fill="black"/>
<path d="M59.2681 203.561H53.3413V208.781H59.2681V203.561Z" fill="black"/>
<path d="M59.2681 193.122H53.3413V198.342H59.2681V193.122Z" fill="black"/>
<path d="M59.2681 177.463H53.3413V182.683H59.2681V177.463Z" fill="black"/>
<path d="M59.2681 172.244H53.3413V177.464H59.2681V172.244Z" fill="black"/>
<path d="M59.2681 167.024H53.3413V172.244H59.2681V167.024Z" fill="black"/>
<path d="M59.2681 151.366H53.3413V156.585H59.2681V151.366Z" fill="black"/>
<path d="M59.2681 146.146H53.3413V151.366H59.2681V146.146Z" fill="black"/>
<path d="M59.2681 140.927H53.3413V146.146H59.2681V140.927Z" fill="black"/>
<path d="M59.2681 135.708H53.3413V140.927H59.2681V135.708Z" fill="black"/>
<path d="M59.2681 125.268H53.3413V130.488H59.2681V125.268Z" fill="black"/>
<path d="M59.2681 88.7319H53.3413V93.9514H59.2681V88.7319Z" fill="black"/>
<path d="M59.2681 83.5122H53.3413V88.7317H59.2681V83.5122Z" fill="black"/>
<path d="M59.2681 67.8535H53.3413V73.073H59.2681V67.8535Z" fill="black"/>
<path d="M59.2681 41.7559H53.3413V46.9754H59.2681V41.7559Z" fill="black"/>
<path d="M59.2681 36.5366H53.3413V41.7561H59.2681V36.5366Z" fill="black"/>
<path d="M59.2681 15.6587H53.3413V20.8782H59.2681V15.6587Z" fill="black"/>
<path d="M65.1949 203.561H59.2681V208.781H65.1949V203.561Z" fill="black"/>
<path d="M65.1949 198.341H59.2681V203.561H65.1949V198.341Z" fill="black"/>
<path d="M65.1949 182.683H59.2681V187.903H65.1949V182.683Z" fill="black"/>
<path d="M65.1949 161.805H59.2681V167.024H65.1949V161.805Z" fill="black"/>
<path d="M65.1949 151.366H59.2681V156.585H65.1949V151.366Z" fill="black"/>
<path d="M65.1949 135.708H59.2681V140.927H65.1949V135.708Z" fill="black"/>
<path d="M65.1949 130.488H59.2681V135.707H65.1949V130.488Z" fill="black"/>
<path d="M65.1949 114.829H59.2681V120.049H65.1949V114.829Z" fill="black"/>
<path d="M65.1949 99.1709H59.2681V104.39H65.1949V99.1709Z" fill="black"/>
<path d="M65.1949 93.9512H59.2681V99.1707H65.1949V93.9512Z" fill="black"/>
<path d="M65.1949 83.5122H59.2681V88.7317H65.1949V83.5122Z" fill="black"/>
<path d="M65.1949 73.0732H59.2681V78.2928H65.1949V73.0732Z" fill="black"/>
<path d="M65.1949 67.8535H59.2681V73.073H65.1949V67.8535Z" fill="black"/>
<path d="M65.1949 52.1953H59.2681V57.4148H65.1949V52.1953Z" fill="black"/>
<path d="M65.1949 46.9756H59.2681V52.1951H65.1949V46.9756Z" fill="black"/>
<path d="M65.1949 36.5366H59.2681V41.7561H65.1949V36.5366Z" fill="black"/>
<path d="M65.1949 31.3169H59.2681V36.5364H65.1949V31.3169Z" fill="black"/>
<path d="M65.1949 26.0977H59.2681V31.3172H65.1949V26.0977Z" fill="black"/>
<path d="M65.1949 20.8779H59.2681V26.0974H65.1949V20.8779Z" fill="black"/>
<path d="M65.1949 15.6587H59.2681V20.8782H65.1949V15.6587Z" fill="black"/>
<path d="M65.1949 10.439H59.2681V15.6585H65.1949V10.439Z" fill="black"/>
<path d="M71.1221 203.561H65.1953V208.781H71.1221V203.561Z" fill="black"/>
<path d="M71.1221 198.341H65.1953V203.561H71.1221V198.341Z" fill="black"/>
<path d="M71.1221 187.902H65.1953V193.122H71.1221V187.902Z" fill="black"/>
<path d="M71.1221 182.683H65.1953V187.903H71.1221V182.683Z" fill="black"/>
<path d="M71.1221 177.463H65.1953V182.683H71.1221V177.463Z" fill="black"/>
<path d="M71.1221 172.244H65.1953V177.464H71.1221V172.244Z" fill="black"/>
<path d="M71.1221 156.585H65.1953V161.805H71.1221V156.585Z" fill="black"/>
<path d="M71.1221 135.708H65.1953V140.927H71.1221V135.708Z" fill="black"/>
<path d="M71.1221 130.488H65.1953V135.707H71.1221V130.488Z" fill="black"/>
<path d="M71.1221 125.268H65.1953V130.488H71.1221V125.268Z" fill="black"/>
<path d="M71.1221 120.049H65.1953V125.268H71.1221V120.049Z" fill="black"/>
<path d="M71.1221 114.829H65.1953V120.049H71.1221V114.829Z" fill="black"/>
<path d="M71.1221 109.61H65.1953V114.829H71.1221V109.61Z" fill="black"/>
<path d="M71.1221 99.1709H65.1953V104.39H71.1221V99.1709Z" fill="black"/>
<path d="M71.1221 93.9512H65.1953V99.1707H71.1221V93.9512Z" fill="black"/>
<path d="M71.1221 67.8535H65.1953V73.073H71.1221V67.8535Z" fill="black"/>
<path d="M71.1221 57.4146H65.1953V62.6341H71.1221V57.4146Z" fill="black"/>
<path d="M71.1221 41.7559H65.1953V46.9754H71.1221V41.7559Z" fill="black"/>
<path d="M71.1221 36.5366H65.1953V41.7561H71.1221V36.5366Z" fill="black"/>
<path d="M71.1221 26.0977H65.1953V31.3172H71.1221V26.0977Z" fill="black"/>
<path d="M71.1221 20.8779H65.1953V26.0974H71.1221V20.8779Z" fill="black"/>
<path d="M71.1221 5.21973H65.1953V10.4392H71.1221V5.21973Z" fill="black"/>
<path d="M71.1221 0H65.1953V5.21951H71.1221V0Z" fill="black"/>
<path d="M77.0489 208.78H71.1221V214H77.0489V208.78Z" fill="black"/>
<path d="M77.0489 193.122H71.1221V198.342H77.0489V193.122Z" fill="black"/>
<path d="M77.0489 177.463H71.1221V182.683H77.0489V177.463Z" fill="black"/>
<path d="M77.0489 172.244H71.1221V177.464H77.0489V172.244Z" fill="black"/>
<path d="M77.0489 167.024H71.1221V172.244H77.0489V167.024Z" fill="black"/>
<path d="M77.0489 161.805H71.1221V167.024H77.0489V161.805Z" fill="black"/>
<path d="M77.0489 156.585H71.1221V161.805H77.0489V156.585Z" fill="black"/>
<path d="M77.0489 151.366H71.1221V156.585H77.0489V151.366Z" fill="black"/>
<path d="M77.0489 146.146H71.1221V151.366H77.0489V146.146Z" fill="black"/>
<path d="M77.0489 140.927H71.1221V146.146H77.0489V140.927Z" fill="black"/>
<path d="M77.0489 130.488H71.1221V135.707H77.0489V130.488Z" fill="black"/>
<path d="M77.0489 125.268H71.1221V130.488H77.0489V125.268Z" fill="black"/>
<path d="M77.0489 120.049H71.1221V125.268H77.0489V120.049Z" fill="black"/>
<path d="M77.0489 109.61H71.1221V114.829H77.0489V109.61Z" fill="black"/>
<path d="M77.0489 104.39H71.1221V109.61H77.0489V104.39Z" fill="black"/>
<path d="M77.0489 93.9512H71.1221V99.1707H77.0489V93.9512Z" fill="black"/>
<path d="M77.0489 83.5122H71.1221V88.7317H77.0489V83.5122Z" fill="black"/>
<path d="M77.0489 73.0732H71.1221V78.2928H77.0489V73.0732Z" fill="black"/>
<path d="M77.0489 62.6343H71.1221V67.8538H77.0489V62.6343Z" fill="black"/>
<path d="M77.0489 57.4146H71.1221V62.6341H77.0489V57.4146Z" fill="black"/>
<path d="M77.0489 46.9756H71.1221V52.1951H77.0489V46.9756Z" fill="black"/>
<path d="M77.0489 36.5366H71.1221V41.7561H77.0489V36.5366Z" fill="black"/>
<path d="M77.0489 31.3169H71.1221V36.5364H77.0489V31.3169Z" fill="black"/>
<path d="M77.0489 26.0977H71.1221V31.3172H77.0489V26.0977Z" fill="black"/>
<path d="M77.0489 20.8779H71.1221V26.0974H77.0489V20.8779Z" fill="black"/>
<path d="M77.0489 15.6587H71.1221V20.8782H77.0489V15.6587Z" fill="black"/>
<path d="M77.0489 10.439H71.1221V15.6585H77.0489V10.439Z" fill="black"/>
<path d="M82.9757 203.561H77.0488V208.781H82.9757V203.561Z" fill="black"/>
<path d="M82.9757 198.341H77.0488V203.561H82.9757V198.341Z" fill="black"/>
<path d="M82.9757 193.122H77.0488V198.342H82.9757V193.122Z" fill="black"/>
<path d="M82.9757 167.024H77.0488V172.244H82.9757V167.024Z" fill="black"/>
<path d="M82.9757 161.805H77.0488V167.024H82.9757V161.805Z" fill="black"/>
<path d="M82.9757 151.366H77.0488V156.585H82.9757V151.366Z" fill="black"/>
<path d="M82.9757 125.268H77.0488V130.488H82.9757V125.268Z" fill="black"/>
<path d="M82.9757 114.829H77.0488V120.049H82.9757V114.829Z" fill="black"/>
<path d="M82.9757 104.39H77.0488V109.61H82.9757V104.39Z" fill="black"/>
<path d="M82.9757 93.9512H77.0488V99.1707H82.9757V93.9512Z" fill="black"/>
<path d="M82.9757 88.7319H77.0488V93.9514H82.9757V88.7319Z" fill="black"/>
<path d="M82.9757 78.2925H77.0488V83.512H82.9757V78.2925Z" fill="black"/>
<path d="M82.9757 73.0732H77.0488V78.2928H82.9757V73.0732Z" fill="black"/>
<path d="M82.9757 62.6343H77.0488V67.8538H82.9757V62.6343Z" fill="black"/>
<path d="M82.9757 57.4146H77.0488V62.6341H82.9757V57.4146Z" fill="black"/>
<path d="M82.9757 52.1953H77.0488V57.4148H82.9757V52.1953Z" fill="black"/>
<path d="M82.9757 41.7559H77.0488V46.9754H82.9757V41.7559Z" fill="black"/>
<path d="M82.9757 36.5366H77.0488V41.7561H82.9757V36.5366Z" fill="black"/>
<path d="M82.9757 26.0977H77.0488V31.3172H82.9757V26.0977Z" fill="black"/>
<path d="M82.9757 20.8779H77.0488V26.0974H82.9757V20.8779Z" fill="black"/>
<path d="M82.9757 10.439H77.0488V15.6585H82.9757V10.439Z" fill="black"/>
<path d="M82.9757 5.21973H77.0488V10.4392H82.9757V5.21973Z" fill="black"/>
<path d="M88.9024 208.78H82.9756V214H88.9024V208.78Z" fill="black"/>
<path d="M88.9024 203.561H82.9756V208.781H88.9024V203.561Z" fill="black"/>
<path d="M88.9024 198.341H82.9756V203.561H88.9024V198.341Z" fill="black"/>
<path d="M88.9024 193.122H82.9756V198.342H88.9024V193.122Z" fill="black"/>
<path d="M88.9024 187.902H82.9756V193.122H88.9024V187.902Z" fill="black"/>
<path d="M88.9024 182.683H82.9756V187.903H88.9024V182.683Z" fill="black"/>
<path d="M88.9024 177.463H82.9756V182.683H88.9024V177.463Z" fill="black"/>
<path d="M88.9024 172.244H82.9756V177.464H88.9024V172.244Z" fill="black"/>
<path d="M88.9024 167.024H82.9756V172.244H88.9024V167.024Z" fill="black"/>
<path d="M88.9024 156.585H82.9756V161.805H88.9024V156.585Z" fill="black"/>
<path d="M88.9024 151.366H82.9756V156.585H88.9024V151.366Z" fill="black"/>
<path d="M88.9024 130.488H82.9756V135.707H88.9024V130.488Z" fill="black"/>
<path d="M88.9024 125.268H82.9756V130.488H88.9024V125.268Z" fill="black"/>
<path d="M88.9024 120.049H82.9756V125.268H88.9024V120.049Z" fill="black"/>
<path d="M88.9024 99.1709H82.9756V104.39H88.9024V99.1709Z" fill="black"/>
<path d="M88.9024 83.5122H82.9756V88.7317H88.9024V83.5122Z" fill="black"/>
<path d="M88.9024 78.2925H82.9756V83.512H88.9024V78.2925Z" fill="black"/>
<path d="M88.9024 62.6343H82.9756V67.8538H88.9024V62.6343Z" fill="black"/>
<path d="M88.9024 36.5366H82.9756V41.7561H88.9024V36.5366Z" fill="black"/>
<path d="M88.9024 31.3169H82.9756V36.5364H88.9024V31.3169Z" fill="black"/>
<path d="M88.9024 15.6587H82.9756V20.8782H88.9024V15.6587Z" fill="black"/>
<path d="M88.9024 10.439H82.9756V15.6585H88.9024V10.439Z" fill="black"/>
<path d="M88.9024 5.21973H82.9756V10.4392H88.9024V5.21973Z" fill="black"/>
<path d="M88.9024 0H82.9756V5.21951H88.9024V0Z" fill="black"/>
<path d="M94.8292 203.561H88.9023V208.781H94.8292V203.561Z" fill="black"/>
<path d="M94.8292 182.683H88.9023V187.903H94.8292V182.683Z" fill="black"/>
<path d="M94.8292 172.244H88.9023V177.464H94.8292V172.244Z" fill="black"/>
<path d="M94.8292 161.805H88.9023V167.024H94.8292V161.805Z" fill="black"/>
<path d="M94.8292 151.366H88.9023V156.585H94.8292V151.366Z" fill="black"/>
<path d="M94.8292 135.708H88.9023V140.927H94.8292V135.708Z" fill="black"/>
<path d="M94.8292 130.488H88.9023V135.707H94.8292V130.488Z" fill="black"/>
<path d="M94.8292 120.049H88.9023V125.268H94.8292V120.049Z" fill="black"/>
<path d="M94.8292 109.61H88.9023V114.829H94.8292V109.61Z" fill="black"/>
<path d="M94.8292 104.39H88.9023V109.61H94.8292V104.39Z" fill="black"/>
<path d="M94.8292 88.7319H88.9023V93.9514H94.8292V88.7319Z" fill="black"/>
<path d="M94.8292 83.5122H88.9023V88.7317H94.8292V83.5122Z" fill="black"/>
<path d="M94.8292 73.0732H88.9023V78.2928H94.8292V73.0732Z" fill="black"/>
<path d="M94.8292 67.8535H88.9023V73.073H94.8292V67.8535Z" fill="black"/>
<path d="M94.8292 62.6343H88.9023V67.8538H94.8292V62.6343Z" fill="black"/>
<path d="M94.8292 26.0977H88.9023V31.3172H94.8292V26.0977Z" fill="black"/>
<path d="M94.8292 15.6587H88.9023V20.8782H94.8292V15.6587Z" fill="black"/>
<path d="M94.8292 5.21973H88.9023V10.4392H94.8292V5.21973Z" fill="black"/>
<path d="M94.8292 0H88.9023V5.21951H94.8292V0Z" fill="black"/>
<path d="M100.756 208.78H94.8291V214H100.756V208.78Z" fill="black"/>
<path d="M100.756 193.122H94.8291V198.342H100.756V193.122Z" fill="black"/>
<path d="M100.756 167.024H94.8291V172.244H100.756V167.024Z" fill="black"/>
<path d="M100.756 151.366H94.8291V156.585H100.756V151.366Z" fill="black"/>
<path d="M100.756 140.927H94.8291V146.146H100.756V140.927Z" fill="black"/>
<path d="M100.756 125.268H94.8291V130.488H100.756V125.268Z" fill="black"/>
<path d="M100.756 114.829H94.8291V120.049H100.756V114.829Z" fill="black"/>
<path d="M100.756 109.61H94.8291V114.829H100.756V109.61Z" fill="black"/>
<path d="M100.756 104.39H94.8291V109.61H100.756V104.39Z" fill="black"/>
<path d="M100.756 93.9512H94.8291V99.1707H100.756V93.9512Z" fill="black"/>
<path d="M100.756 88.7319H94.8291V93.9514H100.756V88.7319Z" fill="black"/>
<path d="M100.756 83.5122H94.8291V88.7317H100.756V83.5122Z" fill="black"/>
<path d="M100.756 78.2925H94.8291V83.512H100.756V78.2925Z" fill="black"/>
<path d="M100.756 73.0732H94.8291V78.2928H100.756V73.0732Z" fill="black"/>
<path d="M100.756 62.6343H94.8291V67.8538H100.756V62.6343Z" fill="black"/>
<path d="M100.756 57.4146H94.8291V62.6341H100.756V57.4146Z" fill="black"/>
<path d="M100.756 36.5366H94.8291V41.7561H100.756V36.5366Z" fill="black"/>
<path d="M100.756 31.3169H94.8291V36.5364H100.756V31.3169Z" fill="black"/>
<path d="M100.756 26.0977H94.8291V31.3172H100.756V26.0977Z" fill="black"/>
<path d="M100.756 15.6587H94.8291V20.8782H100.756V15.6587Z" fill="black"/>
<path d="M100.756 0H94.8291V5.21951H100.756V0Z" fill="black"/>
<path d="M106.683 208.78H100.756V214H106.683V208.78Z" fill="black"/>
<path d="M106.683 203.561H100.756V208.781H106.683V203.561Z" fill="black"/>
<path d="M106.683 198.341H100.756V203.561H106.683V198.341Z" fill="black"/>
<path d="M106.683 182.683H100.756V187.903H106.683V182.683Z" fill="black"/>
<path d="M106.683 177.463H100.756V182.683H106.683V177.463Z" fill="black"/>
<path d="M106.683 172.244H100.756V177.464H106.683V172.244Z" fill="black"/>
<path d="M106.683 140.927H100.756V146.146H106.683V140.927Z" fill="black"/>
<path d="M106.683 125.268H100.756V130.488H106.683V125.268Z" fill="black"/>
<path d="M106.683 120.049H100.756V125.268H106.683V120.049Z" fill="black"/>
<path d="M106.683 109.61H100.756V114.829H106.683V109.61Z" fill="black"/>
<path d="M106.683 88.7319H100.756V93.9514H106.683V88.7319Z" fill="black"/>
<path d="M106.683 83.5122H100.756V88.7317H106.683V83.5122Z" fill="black"/>
<path d="M106.683 73.0732H100.756V78.2928H106.683V73.0732Z" fill="black"/>
<path d="M106.683 62.6343H100.756V67.8538H106.683V62.6343Z" fill="black"/>
<path d="M106.683 57.4146H100.756V62.6341H106.683V57.4146Z" fill="black"/>
<path d="M106.683 52.1953H100.756V57.4148H106.683V52.1953Z" fill="black"/>
<path d="M106.683 41.7559H100.756V46.9754H106.683V41.7559Z" fill="black"/>
<path d="M106.683 26.0977H100.756V31.3172H106.683V26.0977Z" fill="black"/>
<path d="M106.683 10.439H100.756V15.6585H106.683V10.439Z" fill="black"/>
<path d="M106.683 0H100.756V5.21951H106.683V0Z" fill="black"/>
<path d="M112.61 208.78H106.683V214H112.61V208.78Z" fill="black"/>
<path d="M112.61 198.341H106.683V203.561H112.61V198.341Z" fill="black"/>
<path d="M112.61 182.683H106.683V187.903H112.61V182.683Z" fill="black"/>
<path d="M112.61 177.463H106.683V182.683H112.61V177.463Z" fill="black"/>
<path d="M112.61 172.244H106.683V177.464H112.61V172.244Z" fill="black"/>
<path d="M112.61 167.024H106.683V172.244H112.61V167.024Z" fill="black"/>
<path d="M112.61 156.585H106.683V161.805H112.61V156.585Z" fill="black"/>
<path d="M112.61 135.708H106.683V140.927H112.61V135.708Z" fill="black"/>
<path d="M112.61 125.268H106.683V130.488H112.61V125.268Z" fill="black"/>
<path d="M112.61 104.39H106.683V109.61H112.61V104.39Z" fill="black"/>
<path d="M112.61 88.7319H106.683V93.9514H112.61V88.7319Z" fill="black"/>
<path d="M112.61 67.8535H106.683V73.073H112.61V67.8535Z" fill="black"/>
<path d="M112.61 62.6343H106.683V67.8538H112.61V62.6343Z" fill="black"/>
<path d="M112.61 46.9756H106.683V52.1951H112.61V46.9756Z" fill="black"/>
<path d="M112.61 41.7559H106.683V46.9754H112.61V41.7559Z" fill="black"/>
<path d="M112.61 36.5366H106.683V41.7561H112.61V36.5366Z" fill="black"/>
<path d="M112.61 31.3169H106.683V36.5364H112.61V31.3169Z" fill="black"/>
<path d="M112.61 20.8779H106.683V26.0974H112.61V20.8779Z" fill="black"/>
<path d="M112.61 15.6587H106.683V20.8782H112.61V15.6587Z" fill="black"/>
<path d="M112.61 10.439H106.683V15.6585H112.61V10.439Z" fill="black"/>
<path d="M118.537 203.561H112.61V208.781H118.537V203.561Z" fill="black"/>
<path d="M118.537 177.463H112.61V182.683H118.537V177.463Z" fill="black"/>
<path d="M118.537 151.366H112.61V156.585H118.537V151.366Z" fill="black"/>
<path d="M118.537 135.708H112.61V140.927H118.537V135.708Z" fill="black"/>
<path d="M118.537 125.268H112.61V130.488H118.537V125.268Z" fill="black"/>
<path d="M118.537 120.049H112.61V125.268H118.537V120.049Z" fill="black"/>
<path d="M118.537 109.61H112.61V114.829H118.537V109.61Z" fill="black"/>
<path d="M118.537 104.39H112.61V109.61H118.537V104.39Z" fill="black"/>
<path d="M118.537 99.1709H112.61V104.39H118.537V99.1709Z" fill="black"/>
<path d="M118.537 78.2925H112.61V83.512H118.537V78.2925Z" fill="black"/>
<path d="M118.537 67.8535H112.61V73.073H118.537V67.8535Z" fill="black"/>
<path d="M118.537 62.6343H112.61V67.8538H118.537V62.6343Z" fill="black"/>
<path d="M118.537 41.7559H112.61V46.9754H118.537V41.7559Z" fill="black"/>
<path d="M118.537 36.5366H112.61V41.7561H118.537V36.5366Z" fill="black"/>
<path d="M118.537 20.8779H112.61V26.0974H118.537V20.8779Z" fill="black"/>
<path d="M118.537 15.6587H112.61V20.8782H118.537V15.6587Z" fill="black"/>
<path d="M118.537 10.439H112.61V15.6585H118.537V10.439Z" fill="black"/>
<path d="M118.537 0H112.61V5.21951H118.537V0Z" fill="black"/>
<path d="M124.463 208.78H118.537V214H124.463V208.78Z" fill="black"/>
<path d="M124.463 198.341H118.537V203.561H124.463V198.341Z" fill="black"/>
<path d="M124.463 182.683H118.537V187.903H124.463V182.683Z" fill="black"/>
<path d="M124.463 177.463H118.537V182.683H124.463V177.463Z" fill="black"/>
<path d="M124.463 172.244H118.537V177.464H124.463V172.244Z" fill="black"/>
<path d="M124.463 167.024H118.537V172.244H124.463V167.024Z" fill="black"/>
<path d="M124.463 146.146H118.537V151.366H124.463V146.146Z" fill="black"/>
<path d="M124.463 140.927H118.537V146.146H124.463V140.927Z" fill="black"/>
<path d="M124.463 135.708H118.537V140.927H124.463V135.708Z" fill="black"/>
<path d="M124.463 130.488H118.537V135.707H124.463V130.488Z" fill="black"/>
<path d="M124.463 125.268H118.537V130.488H124.463V125.268Z" fill="black"/>
<path d="M124.463 114.829H118.537V120.049H124.463V114.829Z" fill="black"/>
<path d="M124.463 109.61H118.537V114.829H124.463V109.61Z" fill="black"/>
<path d="M124.463 104.39H118.537V109.61H124.463V104.39Z" fill="black"/>
<path d="M124.463 99.1709H118.537V104.39H124.463V99.1709Z" fill="black"/>
<path d="M124.463 88.7319H118.537V93.9514H124.463V88.7319Z" fill="black"/>
<path d="M124.463 73.0732H118.537V78.2928H124.463V73.0732Z" fill="black"/>
<path d="M124.463 52.1953H118.537V57.4148H124.463V52.1953Z" fill="black"/>
<path d="M124.463 46.9756H118.537V52.1951H124.463V46.9756Z" fill="black"/>
<path d="M124.463 31.3169H118.537V36.5364H124.463V31.3169Z" fill="black"/>
<path d="M124.463 20.8779H118.537V26.0974H124.463V20.8779Z" fill="black"/>
<path d="M124.463 0H118.537V5.21951H124.463V0Z" fill="black"/>
<path d="M130.39 208.78H124.463V214H130.39V208.78Z" fill="black"/>
<path d="M130.39 203.561H124.463V208.781H130.39V203.561Z" fill="black"/>
<path d="M130.39 198.341H124.463V203.561H130.39V198.341Z" fill="black"/>
<path d="M130.39 182.683H124.463V187.903H130.39V182.683Z" fill="black"/>
<path d="M130.39 177.463H124.463V182.683H130.39V177.463Z" fill="black"/>
<path d="M130.39 167.024H124.463V172.244H130.39V167.024Z" fill="black"/>
<path d="M130.39 156.585H124.463V161.805H130.39V156.585Z" fill="black"/>
<path d="M130.39 146.146H124.463V151.366H130.39V146.146Z" fill="black"/>
<path d="M130.39 135.708H124.463V140.927H130.39V135.708Z" fill="black"/>
<path d="M130.39 130.488H124.463V135.707H130.39V130.488Z" fill="black"/>
<path d="M130.39 114.829H124.463V120.049H130.39V114.829Z" fill="black"/>
<path d="M130.39 99.1709H124.463V104.39H130.39V99.1709Z" fill="black"/>
<path d="M130.39 88.7319H124.463V93.9514H130.39V88.7319Z" fill="black"/>
<path d="M130.39 78.2925H124.463V83.512H130.39V78.2925Z" fill="black"/>
<path d="M130.39 67.8535H124.463V73.073H130.39V67.8535Z" fill="black"/>
<path d="M130.39 57.4146H124.463V62.6341H130.39V57.4146Z" fill="black"/>
<path d="M130.39 52.1953H124.463V57.4148H130.39V52.1953Z" fill="black"/>
<path d="M130.39 20.8779H124.463V26.0974H130.39V20.8779Z" fill="black"/>
<path d="M130.39 10.439H124.463V15.6585H130.39V10.439Z" fill="black"/>
<path d="M130.39 5.21973H124.463V10.4392H130.39V5.21973Z" fill="black"/>
<path d="M136.317 203.561H130.39V208.781H136.317V203.561Z" fill="black"/>
<path d="M136.317 193.122H130.39V198.342H136.317V193.122Z" fill="black"/>
<path d="M136.317 187.902H130.39V193.122H136.317V187.902Z" fill="black"/>
<path d="M136.317 182.683H130.39V187.903H136.317V182.683Z" fill="black"/>
<path d="M136.317 167.024H130.39V172.244H136.317V167.024Z" fill="black"/>
<path d="M136.317 161.805H130.39V167.024H136.317V161.805Z" fill="black"/>
<path d="M136.317 151.366H130.39V156.585H136.317V151.366Z" fill="black"/>
<path d="M136.317 146.146H130.39V151.366H136.317V146.146Z" fill="black"/>
<path d="M136.317 130.488H130.39V135.707H136.317V130.488Z" fill="black"/>
<path d="M136.317 99.1709H130.39V104.39H136.317V99.1709Z" fill="black"/>
<path d="M136.317 93.9512H130.39V99.1707H136.317V93.9512Z" fill="black"/>
<path d="M136.317 83.5122H130.39V88.7317H136.317V83.5122Z" fill="black"/>
<path d="M136.317 73.0732H130.39V78.2928H136.317V73.0732Z" fill="black"/>
<path d="M136.317 67.8535H130.39V73.073H136.317V67.8535Z" fill="black"/>
<path d="M136.317 52.1953H130.39V57.4148H136.317V52.1953Z" fill="black"/>
<path d="M136.317 46.9756H130.39V52.1951H136.317V46.9756Z" fill="black"/>
<path d="M136.317 36.5366H130.39V41.7561H136.317V36.5366Z" fill="black"/>
<path d="M136.317 31.3169H130.39V36.5364H136.317V31.3169Z" fill="black"/>
<path d="M136.317 26.0977H130.39V31.3172H136.317V26.0977Z" fill="black"/>
<path d="M136.317 20.8779H130.39V26.0974H136.317V20.8779Z" fill="black"/>
<path d="M136.317 15.6587H130.39V20.8782H136.317V15.6587Z" fill="black"/>
<path d="M136.317 10.439H130.39V15.6585H136.317V10.439Z" fill="black"/>
<path d="M136.317 5.21973H130.39V10.4392H136.317V5.21973Z" fill="black"/>
<path d="M142.244 208.78H136.317V214H142.244V208.78Z" fill="black"/>
<path d="M142.244 198.341H136.317V203.561H142.244V198.341Z" fill="black"/>
<path d="M142.244 193.122H136.317V198.342H142.244V193.122Z" fill="black"/>
<path d="M142.244 182.683H136.317V187.903H142.244V182.683Z" fill="black"/>
<path d="M142.244 172.244H136.317V177.464H142.244V172.244Z" fill="black"/>
<path d="M142.244 167.024H136.317V172.244H142.244V167.024Z" fill="black"/>
<path d="M142.244 156.585H136.317V161.805H142.244V156.585Z" fill="black"/>
<path d="M142.244 140.927H136.317V146.146H142.244V140.927Z" fill="black"/>
<path d="M142.244 135.708H136.317V140.927H142.244V135.708Z" fill="black"/>
<path d="M142.244 130.488H136.317V135.707H142.244V130.488Z" fill="black"/>
<path d="M142.244 114.829H136.317V120.049H142.244V114.829Z" fill="black"/>
<path d="M142.244 109.61H136.317V114.829H142.244V109.61Z" fill="black"/>
<path d="M142.244 104.39H136.317V109.61H142.244V104.39Z" fill="black"/>
<path d="M142.244 99.1709H136.317V104.39H142.244V99.1709Z" fill="black"/>
<path d="M142.244 78.2925H136.317V83.512H142.244V78.2925Z" fill="black"/>
<path d="M142.244 73.0732H136.317V78.2928H142.244V73.0732Z" fill="black"/>
<path d="M142.244 67.8535H136.317V73.073H142.244V67.8535Z" fill="black"/>
<path d="M142.244 41.7559H136.317V46.9754H142.244V41.7559Z" fill="black"/>
<path d="M142.244 36.5366H136.317V41.7561H142.244V36.5366Z" fill="black"/>
<path d="M142.244 20.8779H136.317V26.0974H142.244V20.8779Z" fill="black"/>
<path d="M142.244 15.6587H136.317V20.8782H142.244V15.6587Z" fill="black"/>
<path d="M142.244 0H136.317V5.21951H142.244V0Z" fill="black"/>
<path d="M148.171 208.78H142.244V214H148.171V208.78Z" fill="black"/>
<path d="M148.171 203.561H142.244V208.781H148.171V203.561Z" fill="black"/>
<path d="M148.171 187.902H142.244V193.122H148.171V187.902Z" fill="black"/>
<path d="M148.171 177.463H142.244V182.683H148.171V177.463Z" fill="black"/>
<path d="M148.171 172.244H142.244V177.464H148.171V172.244Z" fill="black"/>
<path d="M148.171 167.024H142.244V172.244H148.171V167.024Z" fill="black"/>
<path d="M148.171 151.366H142.244V156.585H148.171V151.366Z" fill="black"/>
<path d="M148.171 135.708H142.244V140.927H148.171V135.708Z" fill="black"/>
<path d="M148.171 130.488H142.244V135.707H148.171V130.488Z" fill="black"/>
<path d="M148.171 125.268H142.244V130.488H148.171V125.268Z" fill="black"/>
<path d="M148.171 120.049H142.244V125.268H148.171V120.049Z" fill="black"/>
<path d="M148.171 109.61H142.244V114.829H148.171V109.61Z" fill="black"/>
<path d="M148.171 104.39H142.244V109.61H148.171V104.39Z" fill="black"/>
<path d="M148.171 88.7319H142.244V93.9514H148.171V88.7319Z" fill="black"/>
<path d="M148.171 67.8535H142.244V73.073H148.171V67.8535Z" fill="black"/>
<path d="M148.171 62.6343H142.244V67.8538H148.171V62.6343Z" fill="black"/>
<path d="M148.171 52.1953H142.244V57.4148H148.171V52.1953Z" fill="black"/>
<path d="M148.171 46.9756H142.244V52.1951H148.171V46.9756Z" fill="black"/>
<path d="M148.171 36.5366H142.244V41.7561H148.171V36.5366Z" fill="black"/>
<path d="M148.171 31.3169H142.244V36.5364H148.171V31.3169Z" fill="black"/>
<path d="M148.171 15.6587H142.244V20.8782H148.171V15.6587Z" fill="black"/>
<path d="M148.171 0H142.244V5.21951H148.171V0Z" fill="black"/>
<path d="M154.098 161.805H148.171V167.024H154.098V161.805Z" fill="black"/>
<path d="M154.098 151.366H148.171V156.585H154.098V151.366Z" fill="black"/>
<path d="M154.098 146.146H148.171V151.366H154.098V146.146Z" fill="black"/>
<path d="M154.098 125.268H148.171V130.488H154.098V125.268Z" fill="black"/>
<path d="M154.098 114.829H148.171V120.049H154.098V114.829Z" fill="black"/>
<path d="M154.098 104.39H148.171V109.61H154.098V104.39Z" fill="black"/>
<path d="M154.098 99.1709H148.171V104.39H154.098V99.1709Z" fill="black"/>
<path d="M154.098 93.9512H148.171V99.1707H154.098V93.9512Z" fill="black"/>
<path d="M154.098 88.7319H148.171V93.9514H154.098V88.7319Z" fill="black"/>
<path d="M154.098 73.0732H148.171V78.2928H154.098V73.0732Z" fill="black"/>
<path d="M154.098 62.6343H148.171V67.8538H154.098V62.6343Z" fill="black"/>
<path d="M154.098 52.1953H148.171V57.4148H154.098V52.1953Z" fill="black"/>
<path d="M154.098 36.5366H148.171V41.7561H154.098V36.5366Z" fill="black"/>
<path d="M154.098 26.0977H148.171V31.3172H154.098V26.0977Z" fill="black"/>
<path d="M154.098 20.8779H148.171V26.0974H154.098V20.8779Z" fill="black"/>
<path d="M154.098 5.21973H148.171V10.4392H154.098V5.21973Z" fill="black"/>
<path d="M154.098 0H148.171V5.21951H154.098V0Z" fill="black"/>
<path d="M160.024 208.78H154.098V214H160.024V208.78Z" fill="black"/>
<path d="M160.024 203.561H154.098V208.781H160.024V203.561Z" fill="black"/>
<path d="M160.024 187.902H154.098V193.122H160.024V187.902Z" fill="black"/>
<path d="M160.024 182.683H154.098V187.903H160.024V182.683Z" fill="black"/>
<path d="M160.024 177.463H154.098V182.683H160.024V177.463Z" fill="black"/>
<path d="M160.024 167.024H154.098V172.244H160.024V167.024Z" fill="black"/>
<path d="M160.024 151.366H154.098V156.585H160.024V151.366Z" fill="black"/>
<path d="M160.024 130.488H154.098V135.707H160.024V130.488Z" fill="black"/>
<path d="M160.024 120.049H154.098V125.268H160.024V120.049Z" fill="black"/>
<path d="M160.024 109.61H154.098V114.829H160.024V109.61Z" fill="black"/>
<path d="M160.024 104.39H154.098V109.61H160.024V104.39Z" fill="black"/>
<path d="M160.024 93.9512H154.098V99.1707H160.024V93.9512Z" fill="black"/>
<path d="M160.024 88.7319H154.098V93.9514H160.024V88.7319Z" fill="black"/>
<path d="M160.024 83.5122H154.098V88.7317H160.024V83.5122Z" fill="black"/>
<path d="M160.024 57.4146H154.098V62.6341H160.024V57.4146Z" fill="black"/>
<path d="M160.024 52.1953H154.098V57.4148H160.024V52.1953Z" fill="black"/>
<path d="M160.024 46.9756H154.098V52.1951H160.024V46.9756Z" fill="black"/>
<path d="M160.024 41.7559H154.098V46.9754H160.024V41.7559Z" fill="black"/>
<path d="M160.024 36.5366H154.098V41.7561H160.024V36.5366Z" fill="black"/>
<path d="M160.024 31.3169H154.098V36.5364H160.024V31.3169Z" fill="black"/>
<path d="M160.024 15.6587H154.098V20.8782H160.024V15.6587Z" fill="black"/>
<path d="M160.024 10.439H154.098V15.6585H160.024V10.439Z" fill="black"/>
<path d="M160.024 0H154.098V5.21951H160.024V0Z" fill="black"/>
<path d="M165.951 182.683H160.024V187.903H165.951V182.683Z" fill="black"/>
<path d="M165.951 177.463H160.024V182.683H165.951V177.463Z" fill="black"/>
<path d="M165.951 151.366H160.024V156.585H165.951V151.366Z" fill="black"/>
<path d="M165.951 135.708H160.024V140.927H165.951V135.708Z" fill="black"/>
<path d="M165.951 130.488H160.024V135.707H165.951V130.488Z" fill="black"/>
<path d="M165.951 114.829H160.024V120.049H165.951V114.829Z" fill="black"/>
<path d="M165.951 109.61H160.024V114.829H165.951V109.61Z" fill="black"/>
<path d="M165.951 104.39H160.024V109.61H165.951V104.39Z" fill="black"/>
<path d="M165.951 93.9512H160.024V99.1707H165.951V93.9512Z" fill="black"/>
<path d="M165.951 88.7319H160.024V93.9514H165.951V88.7319Z" fill="black"/>
<path d="M165.951 73.0732H160.024V78.2928H165.951V73.0732Z" fill="black"/>
<path d="M165.951 67.8535H160.024V73.073H165.951V67.8535Z" fill="black"/>
<path d="M165.951 57.4146H160.024V62.6341H165.951V57.4146Z" fill="black"/>
<path d="M165.951 46.9756H160.024V52.1951H165.951V46.9756Z" fill="black"/>
<path d="M165.951 36.5366H160.024V41.7561H165.951V36.5366Z" fill="black"/>
<path d="M165.951 15.6587H160.024V20.8782H165.951V15.6587Z" fill="black"/>
<path d="M165.951 10.439H160.024V15.6585H165.951V10.439Z" fill="black"/>
<path d="M165.951 5.21973H160.024V10.4392H165.951V5.21973Z" fill="black"/>
<path d="M165.951 0H160.024V5.21951H165.951V0Z" fill="black"/>
<path d="M171.878 203.561H165.951V208.781H171.878V203.561Z" fill="black"/>
<path d="M171.878 193.122H165.951V198.342H171.878V193.122Z" fill="black"/>
<path d="M171.878 161.805H165.951V167.024H171.878V161.805Z" fill="black"/>
<path d="M171.878 151.366H165.951V156.585H171.878V151.366Z" fill="black"/>
<path d="M171.878 135.708H165.951V140.927H171.878V135.708Z" fill="black"/>
<path d="M171.878 104.39H165.951V109.61H171.878V104.39Z" fill="black"/>
<path d="M171.878 93.9512H165.951V99.1707H171.878V93.9512Z" fill="black"/>
<path d="M171.878 78.2925H165.951V83.512H171.878V78.2925Z" fill="black"/>
<path d="M171.878 73.0732H165.951V78.2928H171.878V73.0732Z" fill="black"/>
<path d="M171.878 67.8535H165.951V73.073H171.878V67.8535Z" fill="black"/>
<path d="M171.878 62.6343H165.951V67.8538H171.878V62.6343Z" fill="black"/>
<path d="M171.878 46.9756H165.951V52.1951H171.878V46.9756Z" fill="black"/>
<path d="M171.878 36.5366H165.951V41.7561H171.878V36.5366Z" fill="black"/>
<path d="M171.878 31.3169H165.951V36.5364H171.878V31.3169Z" fill="black"/>
<path d="M171.878 20.8779H165.951V26.0974H171.878V20.8779Z" fill="black"/>
<path d="M171.878 5.21973H165.951V10.4392H171.878V5.21973Z" fill="black"/>
<path d="M177.805 198.341H171.878V203.561H177.805V198.341Z" fill="black"/>
<path d="M177.805 193.122H171.878V198.342H177.805V193.122Z" fill="black"/>
<path d="M177.805 182.683H171.878V187.903H177.805V182.683Z" fill="black"/>
<path d="M177.805 172.244H171.878V177.464H177.805V172.244Z" fill="black"/>
<path d="M177.805 146.146H171.878V151.366H177.805V146.146Z" fill="black"/>
<path d="M177.805 135.708H171.878V140.927H177.805V135.708Z" fill="black"/>
<path d="M177.805 130.488H171.878V135.707H177.805V130.488Z" fill="black"/>
<path d="M177.805 125.268H171.878V130.488H177.805V125.268Z" fill="black"/>
<path d="M177.805 120.049H171.878V125.268H177.805V120.049Z" fill="black"/>
<path d="M177.805 99.1709H171.878V104.39H177.805V99.1709Z" fill="black"/>
<path d="M177.805 93.9512H171.878V99.1707H177.805V93.9512Z" fill="black"/>
<path d="M177.805 83.5122H171.878V88.7317H177.805V83.5122Z" fill="black"/>
<path d="M177.805 78.2925H171.878V83.512H177.805V78.2925Z" fill="black"/>
<path d="M177.805 67.8535H171.878V73.073H177.805V67.8535Z" fill="black"/>
<path d="M177.805 62.6343H171.878V67.8538H177.805V62.6343Z" fill="black"/>
<path d="M177.805 46.9756H171.878V52.1951H177.805V46.9756Z" fill="black"/>
<path d="M177.805 41.7559H171.878V46.9754H177.805V41.7559Z" fill="black"/>
<path d="M177.805 36.5366H171.878V41.7561H177.805V36.5366Z" fill="black"/>
<path d="M177.805 26.0977H171.878V31.3172H177.805V26.0977Z" fill="black"/>
<path d="M177.805 20.8779H171.878V26.0974H177.805V20.8779Z" fill="black"/>
<path d="M177.805 15.6587H171.878V20.8782H177.805V15.6587Z" fill="black"/>
<path d="M183.732 208.78H177.805V214H183.732V208.78Z" fill="black"/>
<path d="M183.732 203.561H177.805V208.781H183.732V203.561Z" fill="black"/>
<path d="M183.732 198.341H177.805V203.561H183.732V198.341Z" fill="black"/>
<path d="M183.732 187.902H177.805V193.122H183.732V187.902Z" fill="black"/>
<path d="M183.732 177.463H177.805V182.683H183.732V177.463Z" fill="black"/>
<path d="M183.732 172.244H177.805V177.464H183.732V172.244Z" fill="black"/>
<path d="M183.732 167.024H177.805V172.244H183.732V167.024Z" fill="black"/>
<path d="M183.732 151.366H177.805V156.585H183.732V151.366Z" fill="black"/>
<path d="M183.732 135.708H177.805V140.927H183.732V135.708Z" fill="black"/>
<path d="M183.732 114.829H177.805V120.049H183.732V114.829Z" fill="black"/>
<path d="M183.732 109.61H177.805V114.829H183.732V109.61Z" fill="black"/>
<path d="M183.732 104.39H177.805V109.61H183.732V104.39Z" fill="black"/>
<path d="M183.732 99.1709H177.805V104.39H183.732V99.1709Z" fill="black"/>
<path d="M183.732 83.5122H177.805V88.7317H183.732V83.5122Z" fill="black"/>
<path d="M183.732 78.2925H177.805V83.512H183.732V78.2925Z" fill="black"/>
<path d="M183.732 73.0732H177.805V78.2928H183.732V73.0732Z" fill="black"/>
<path d="M183.732 67.8535H177.805V73.073H183.732V67.8535Z" fill="black"/>
<path d="M183.732 62.6343H177.805V67.8538H183.732V62.6343Z" fill="black"/>
<path d="M183.732 57.4146H177.805V62.6341H183.732V57.4146Z" fill="black"/>
<path d="M183.732 52.1953H177.805V57.4148H183.732V52.1953Z" fill="black"/>
<path d="M183.732 36.5366H177.805V41.7561H183.732V36.5366Z" fill="black"/>
<path d="M183.732 31.3169H177.805V36.5364H183.732V31.3169Z" fill="black"/>
<path d="M183.732 26.0977H177.805V31.3172H183.732V26.0977Z" fill="black"/>
<path d="M183.732 15.6587H177.805V20.8782H183.732V15.6587Z" fill="black"/>
<path d="M183.732 10.439H177.805V15.6585H183.732V10.439Z" fill="black"/>
<path d="M183.732 0H177.805V5.21951H183.732V0Z" fill="black"/>
<path d="M189.659 208.78H183.732V214H189.659V208.78Z" fill="black"/>
<path d="M189.659 193.122H183.732V198.342H189.659V193.122Z" fill="black"/>
<path d="M189.659 187.902H183.732V193.122H189.659V187.902Z" fill="black"/>
<path d="M189.659 182.683H183.732V187.903H189.659V182.683Z" fill="black"/>
<path d="M189.659 167.024H183.732V172.244H189.659V167.024Z" fill="black"/>
<path d="M189.659 151.366H183.732V156.585H189.659V151.366Z" fill="black"/>
<path d="M189.659 140.927H183.732V146.146H189.659V140.927Z" fill="black"/>
<path d="M189.659 120.049H183.732V125.268H189.659V120.049Z" fill="black"/>
<path d="M189.659 109.61H183.732V114.829H189.659V109.61Z" fill="black"/>
<path d="M189.659 104.39H183.732V109.61H189.659V104.39Z" fill="black"/>
<path d="M189.659 99.1709H183.732V104.39H189.659V99.1709Z" fill="black"/>
<path d="M189.659 93.9512H183.732V99.1707H189.659V93.9512Z" fill="black"/>
<path d="M189.659 88.7319H183.732V93.9514H189.659V88.7319Z" fill="black"/>
<path d="M189.659 73.0732H183.732V78.2928H189.659V73.0732Z" fill="black"/>
<path d="M189.659 62.6343H183.732V67.8538H189.659V62.6343Z" fill="black"/>
<path d="M189.659 52.1953H183.732V57.4148H189.659V52.1953Z" fill="black"/>
<path d="M189.659 46.9756H183.732V52.1951H189.659V46.9756Z" fill="black"/>
<path d="M189.659 41.7559H183.732V46.9754H189.659V41.7559Z" fill="black"/>
<path d="M189.659 36.5366H183.732V41.7561H189.659V36.5366Z" fill="black"/>
<path d="M189.659 26.0977H183.732V31.3172H189.659V26.0977Z" fill="black"/>
<path d="M189.659 20.8779H183.732V26.0974H189.659V20.8779Z" fill="black"/>
<path d="M195.586 203.561H189.659V208.781H195.586V203.561Z" fill="black"/>
<path d="M195.586 198.341H189.659V203.561H195.586V198.341Z" fill="black"/>
<path d="M195.586 193.122H189.659V198.342H195.586V193.122Z" fill="black"/>
<path d="M195.586 187.902H189.659V193.122H195.586V187.902Z" fill="black"/>
<path d="M195.586 182.683H189.659V187.903H195.586V182.683Z" fill="black"/>
<path d="M195.586 177.463H189.659V182.683H195.586V177.463Z" fill="black"/>
<path d="M195.586 172.244H189.659V177.464H195.586V172.244Z" fill="black"/>
<path d="M195.586 167.024H189.659V172.244H195.586V167.024Z" fill="black"/>
<path d="M195.586 156.585H189.659V161.805H195.586V156.585Z" fill="black"/>
<path d="M195.586 140.927H189.659V146.146H195.586V140.927Z" fill="black"/>
<path d="M195.586 135.708H189.659V140.927H195.586V135.708Z" fill="black"/>
<path d="M195.586 130.488H189.659V135.707H195.586V130.488Z" fill="black"/>
<path d="M195.586 120.049H189.659V125.268H195.586V120.049Z" fill="black"/>
<path d="M195.586 109.61H189.659V114.829H195.586V109.61Z" fill="black"/>
<path d="M195.586 99.1709H189.659V104.39H195.586V99.1709Z" fill="black"/>
<path d="M195.586 83.5122H189.659V88.7317H195.586V83.5122Z" fill="black"/>
<path d="M195.586 78.2925H189.659V83.512H195.586V78.2925Z" fill="black"/>
<path d="M195.586 73.0732H189.659V78.2928H195.586V73.0732Z" fill="black"/>
<path d="M195.586 67.8535H189.659V73.073H195.586V67.8535Z" fill="black"/>
<path d="M195.586 62.6343H189.659V67.8538H195.586V62.6343Z" fill="black"/>
<path d="M195.586 41.7559H189.659V46.9754H195.586V41.7559Z" fill="black"/>
<path d="M195.586 31.3169H189.659V36.5364H195.586V31.3169Z" fill="black"/>
<path d="M195.586 26.0977H189.659V31.3172H195.586V26.0977Z" fill="black"/>
<path d="M195.586 10.439H189.659V15.6585H195.586V10.439Z" fill="black"/>
<path d="M195.586 0H189.659V5.21951H195.586V0Z" fill="black"/>
<path d="M201.512 208.78H195.585V214H201.512V208.78Z" fill="black"/>
<path d="M201.512 203.561H195.585V208.781H201.512V203.561Z" fill="black"/>
<path d="M201.512 198.341H195.585V203.561H201.512V198.341Z" fill="black"/>
<path d="M201.512 193.122H195.585V198.342H201.512V193.122Z" fill="black"/>
<path d="M201.512 187.902H195.585V193.122H201.512V187.902Z" fill="black"/>
<path d="M201.512 167.024H195.585V172.244H201.512V167.024Z" fill="black"/>
<path d="M201.512 146.146H195.585V151.366H201.512V146.146Z" fill="black"/>
<path d="M201.512 130.488H195.585V135.707H201.512V130.488Z" fill="black"/>
<path d="M201.512 125.268H195.585V130.488H201.512V125.268Z" fill="black"/>
<path d="M201.512 104.39H195.585V109.61H201.512V104.39Z" fill="black"/>
<path d="M201.512 93.9512H195.585V99.1707H201.512V93.9512Z" fill="black"/>
<path d="M201.512 83.5122H195.585V88.7317H201.512V83.5122Z" fill="black"/>
<path d="M201.512 78.2925H195.585V83.512H201.512V78.2925Z" fill="black"/>
<path d="M201.512 73.0732H195.585V78.2928H201.512V73.0732Z" fill="black"/>
<path d="M201.512 62.6343H195.585V67.8538H201.512V62.6343Z" fill="black"/>
<path d="M201.512 41.7559H195.585V46.9754H201.512V41.7559Z" fill="black"/>
<path d="M207.439 203.561H201.512V208.781H207.439V203.561Z" fill="black"/>
<path d="M207.439 198.341H201.512V203.561H207.439V198.341Z" fill="black"/>
<path d="M207.439 187.902H201.512V193.122H207.439V187.902Z" fill="black"/>
<path d="M207.439 177.463H201.512V182.683H207.439V177.463Z" fill="black"/>
<path d="M207.439 167.024H201.512V172.244H207.439V167.024Z" fill="black"/>
<path d="M207.439 151.366H201.512V156.585H207.439V151.366Z" fill="black"/>
<path d="M207.439 146.146H201.512V151.366H207.439V146.146Z" fill="black"/>
<path d="M207.439 135.708H201.512V140.927H207.439V135.708Z" fill="black"/>
<path d="M207.439 130.488H201.512V135.707H207.439V130.488Z" fill="black"/>
<path d="M207.439 125.268H201.512V130.488H207.439V125.268Z" fill="black"/>
<path d="M207.439 114.829H201.512V120.049H207.439V114.829Z" fill="black"/>
<path d="M207.439 109.61H201.512V114.829H207.439V109.61Z" fill="black"/>
<path d="M207.439 104.39H201.512V109.61H207.439V104.39Z" fill="black"/>
<path d="M207.439 99.1709H201.512V104.39H207.439V99.1709Z" fill="black"/>
<path d="M207.439 88.7319H201.512V93.9514H207.439V88.7319Z" fill="black"/>
<path d="M207.439 62.6343H201.512V67.8538H207.439V62.6343Z" fill="black"/>
<path d="M207.439 41.7559H201.512V46.9754H207.439V41.7559Z" fill="black"/>
<path d="M207.439 31.3169H201.512V36.5364H207.439V31.3169Z" fill="black"/>
<path d="M207.439 26.0977H201.512V31.3172H207.439V26.0977Z" fill="black"/>
<path d="M207.439 20.8779H201.512V26.0974H207.439V20.8779Z" fill="black"/>
<path d="M207.439 15.6587H201.512V20.8782H207.439V15.6587Z" fill="black"/>
<path d="M207.439 10.439H201.512V15.6585H207.439V10.439Z" fill="black"/>
<path d="M207.439 5.21973H201.512V10.4392H207.439V5.21973Z" fill="black"/>
<path d="M207.439 0H201.512V5.21951H207.439V0Z" fill="black"/>
<path d="M213.366 208.78H207.439V214H213.366V208.78Z" fill="black"/>
<path d="M213.366 198.341H207.439V203.561H213.366V198.341Z" fill="black"/>
<path d="M213.366 187.902H207.439V193.122H213.366V187.902Z" fill="black"/>
<path d="M213.366 167.024H207.439V172.244H213.366V167.024Z" fill="black"/>
<path d="M213.366 156.585H207.439V161.805H213.366V156.585Z" fill="black"/>
<path d="M213.366 146.146H207.439V151.366H213.366V146.146Z" fill="black"/>
<path d="M213.366 140.927H207.439V146.146H213.366V140.927Z" fill="black"/>
<path d="M213.366 135.708H207.439V140.927H213.366V135.708Z" fill="black"/>
<path d="M213.366 130.488H207.439V135.707H213.366V130.488Z" fill="black"/>
<path d="M213.366 104.39H207.439V109.61H213.366V104.39Z" fill="black"/>
<path d="M213.366 99.1709H207.439V104.39H213.366V99.1709Z" fill="black"/>
<path d="M213.366 88.7319H207.439V93.9514H213.366V88.7319Z" fill="black"/>
<path d="M213.366 73.0732H207.439V78.2928H213.366V73.0732Z" fill="black"/>
<path d="M213.366 57.4146H207.439V62.6341H213.366V57.4146Z" fill="black"/>
<path d="M213.366 31.3169H207.439V36.5364H213.366V31.3169Z" fill="black"/>
<path d="M213.366 0H207.439V5.21951H213.366V0Z" fill="black"/>
<path d="M219.293 208.78H213.366V214H219.293V208.78Z" fill="black"/>
<path d="M219.293 203.561H213.366V208.781H219.293V203.561Z" fill="black"/>
<path d="M219.293 187.902H213.366V193.122H219.293V187.902Z" fill="black"/>
<path d="M219.293 182.683H213.366V187.903H219.293V182.683Z" fill="black"/>
<path d="M219.293 177.463H213.366V182.683H219.293V177.463Z" fill="black"/>
<path d="M219.293 172.244H213.366V177.464H219.293V172.244Z" fill="black"/>
<path d="M219.293 167.024H213.366V172.244H219.293V167.024Z" fill="black"/>
<path d="M219.293 156.585H213.366V161.805H219.293V156.585Z" fill="black"/>
<path d="M219.293 151.366H213.366V156.585H219.293V151.366Z" fill="black"/>
<path d="M219.293 146.146H213.366V151.366H219.293V146.146Z" fill="black"/>
<path d="M219.293 130.488H213.366V135.707H219.293V130.488Z" fill="black"/>
<path d="M219.293 125.268H213.366V130.488H219.293V125.268Z" fill="black"/>
<path d="M219.293 78.2925H213.366V83.512H219.293V78.2925Z" fill="black"/>
<path d="M219.293 31.3169H213.366V36.5364H219.293V31.3169Z" fill="black"/>
<path d="M219.293 20.8779H213.366V26.0974H219.293V20.8779Z" fill="black"/>
<path d="M219.293 15.6587H213.366V20.8782H219.293V15.6587Z" fill="black"/>
<path d="M219.293 10.439H213.366V15.6585H219.293V10.439Z" fill="black"/>
<path d="M219.293 0H213.366V5.21951H219.293V0Z" fill="black"/>
<path d="M225.219 203.561H219.292V208.781H225.219V203.561Z" fill="black"/>
<path d="M225.219 193.122H219.292V198.342H225.219V193.122Z" fill="black"/>
<path d="M225.219 187.902H219.292V193.122H225.219V187.902Z" fill="black"/>
<path d="M225.219 182.683H219.292V187.903H225.219V182.683Z" fill="black"/>
<path d="M225.219 177.463H219.292V182.683H225.219V177.463Z" fill="black"/>
<path d="M225.219 161.805H219.292V167.024H225.219V161.805Z" fill="black"/>
<path d="M225.219 151.366H219.292V156.585H225.219V151.366Z" fill="black"/>
<path d="M225.219 135.708H219.292V140.927H225.219V135.708Z" fill="black"/>
<path d="M225.219 125.268H219.292V130.488H225.219V125.268Z" fill="black"/>
<path d="M225.219 114.829H219.292V120.049H225.219V114.829Z" fill="black"/>
<path d="M225.219 109.61H219.292V114.829H225.219V109.61Z" fill="black"/>
<path d="M225.219 88.7319H219.292V93.9514H225.219V88.7319Z" fill="black"/>
<path d="M225.219 83.5122H219.292V88.7317H225.219V83.5122Z" fill="black"/>
<path d="M225.219 78.2925H219.292V83.512H225.219V78.2925Z" fill="black"/>
<path d="M225.219 57.4146H219.292V62.6341H225.219V57.4146Z" fill="black"/>
<path d="M225.219 52.1953H219.292V57.4148H225.219V52.1953Z" fill="black"/>
<path d="M225.219 41.7559H219.292V46.9754H225.219V41.7559Z" fill="black"/>
<path d="M225.219 31.3169H219.292V36.5364H225.219V31.3169Z" fill="black"/>
<path d="M225.219 20.8779H219.292V26.0974H225.219V20.8779Z" fill="black"/>
<path d="M225.219 15.6587H219.292V20.8782H225.219V15.6587Z" fill="black"/>
<path d="M225.219 10.439H219.292V15.6585H225.219V10.439Z" fill="black"/>
<path d="M225.219 0H219.292V5.21951H225.219V0Z" fill="black"/>
<path d="M231.147 208.78H225.22V214H231.147V208.78Z" fill="black"/>
<path d="M231.147 203.561H225.22V208.781H231.147V203.561Z" fill="black"/>
<path d="M231.147 187.902H225.22V193.122H231.147V187.902Z" fill="black"/>
<path d="M231.147 182.683H225.22V187.903H231.147V182.683Z" fill="black"/>
<path d="M231.147 156.585H225.22V161.805H231.147V156.585Z" fill="black"/>
<path d="M231.147 151.366H225.22V156.585H231.147V151.366Z" fill="black"/>
<path d="M231.147 146.146H225.22V151.366H231.147V146.146Z" fill="black"/>
<path d="M231.147 120.049H225.22V125.268H231.147V120.049Z" fill="black"/>
<path d="M231.147 104.39H225.22V109.61H231.147V104.39Z" fill="black"/>
<path d="M231.147 93.9512H225.22V99.1707H231.147V93.9512Z" fill="black"/>
<path d="M231.147 73.0732H225.22V78.2928H231.147V73.0732Z" fill="black"/>
<path d="M231.147 57.4146H225.22V62.6341H231.147V57.4146Z" fill="black"/>
<path d="M231.147 52.1953H225.22V57.4148H231.147V52.1953Z" fill="black"/>
<path d="M231.147 46.9756H225.22V52.1951H231.147V46.9756Z" fill="black"/>
<path d="M231.147 31.3169H225.22V36.5364H231.147V31.3169Z" fill="black"/>
<path d="M231.147 20.8779H225.22V26.0974H231.147V20.8779Z" fill="black"/>
<path d="M231.147 15.6587H225.22V20.8782H231.147V15.6587Z" fill="black"/>
<path d="M231.147 10.439H225.22V15.6585H231.147V10.439Z" fill="black"/>
<path d="M231.147 0H225.22V5.21951H231.147V0Z" fill="black"/>
<path d="M237.073 203.561H231.146V208.781H237.073V203.561Z" fill="black"/>
<path d="M237.073 187.902H231.146V193.122H237.073V187.902Z" fill="black"/>
<path d="M237.073 182.683H231.146V187.903H237.073V182.683Z" fill="black"/>
<path d="M237.073 177.463H231.146V182.683H237.073V177.463Z" fill="black"/>
<path d="M237.073 172.244H231.146V177.464H237.073V172.244Z" fill="black"/>
<path d="M237.073 151.366H231.146V156.585H237.073V151.366Z" fill="black"/>
<path d="M237.073 140.927H231.146V146.146H237.073V140.927Z" fill="black"/>
<path d="M237.073 135.708H231.146V140.927H237.073V135.708Z" fill="black"/>
<path d="M237.073 130.488H231.146V135.707H237.073V130.488Z" fill="black"/>
<path d="M237.073 125.268H231.146V130.488H237.073V125.268Z" fill="black"/>
<path d="M237.073 114.829H231.146V120.049H237.073V114.829Z" fill="black"/>
<path d="M237.073 109.61H231.146V114.829H237.073V109.61Z" fill="black"/>
<path d="M237.073 99.1709H231.146V104.39H237.073V99.1709Z" fill="black"/>
<path d="M237.073 93.9512H231.146V99.1707H237.073V93.9512Z" fill="black"/>
<path d="M237.073 88.7319H231.146V93.9514H237.073V88.7319Z" fill="black"/>
<path d="M237.073 78.2925H231.146V83.512H237.073V78.2925Z" fill="black"/>
<path d="M237.073 67.8535H231.146V73.073H237.073V67.8535Z" fill="black"/>
<path d="M237.073 57.4146H231.146V62.6341H237.073V57.4146Z" fill="black"/>
<path d="M237.073 52.1953H231.146V57.4148H237.073V52.1953Z" fill="black"/>
<path d="M237.073 41.7559H231.146V46.9754H237.073V41.7559Z" fill="black"/>
<path d="M237.073 31.3169H231.146V36.5364H237.073V31.3169Z" fill="black"/>
<path d="M237.073 0H231.146V5.21951H237.073V0Z" fill="black"/>
<path d="M243 203.561H237.073V208.781H243V203.561Z" fill="black"/>
<path d="M243 193.122H237.073V198.342H243V193.122Z" fill="black"/>
<path d="M243 187.902H237.073V193.122H243V187.902Z" fill="black"/>
<path d="M243 182.683H237.073V187.903H243V182.683Z" fill="black"/>
<path d="M243 177.463H237.073V182.683H243V177.463Z" fill="black"/>
<path d="M243 167.024H237.073V172.244H243V167.024Z" fill="black"/>
<path d="M243 151.366H237.073V156.585H243V151.366Z" fill="black"/>
<path d="M243 146.146H237.073V151.366H243V146.146Z" fill="black"/>
<path d="M243 135.708H237.073V140.927H243V135.708Z" fill="black"/>
<path d="M243 125.268H237.073V130.488H243V125.268Z" fill="black"/>
<path d="M243 109.61H237.073V114.829H243V109.61Z" fill="black"/>
<path d="M243 104.39H237.073V109.61H243V104.39Z" fill="black"/>
<path d="M243 99.1709H237.073V104.39H243V99.1709Z" fill="black"/>
<path d="M243 93.9512H237.073V99.1707H243V93.9512Z" fill="black"/>
<path d="M243 52.1953H237.073V57.4148H243V52.1953Z" fill="black"/>
<path d="M243 46.9756H237.073V52.1951H243V46.9756Z" fill="black"/>
<path d="M243 41.7559H237.073V46.9754H243V41.7559Z" fill="black"/>
<path d="M243 31.3169H237.073V36.5364H243V31.3169Z" fill="black"/>
<path d="M243 26.0977H237.073V31.3172H243V26.0977Z" fill="black"/>
<path d="M243 20.8779H237.073V26.0974H243V20.8779Z" fill="black"/>
<path d="M243 15.6587H237.073V20.8782H243V15.6587Z" fill="black"/>
<path d="M243 10.439H237.073V15.6585H243V10.439Z" fill="black"/>
<path d="M243 5.21973H237.073V10.4392H243V5.21973Z" fill="black"/>
<path d="M243 0H237.073V5.21951H243V0Z" fill="black"/>
</g>
<defs>
<clipPath id="clip0_598_429">
<rect width="243" height="214" rx="15" fill="white"/>
</clipPath>
</defs>
</svg>
