<svg width="48" height="48" viewBox="0 0 48 48" fill="none" xmlns="http://www.w3.org/2000/svg">
<path d="M12 22.5C11.1716 22.5 10.5 23.1716 10.5 24C10.5 24.8284 11.1716 25.5 12 25.5V22.5ZM37.0607 25.0607C37.6464 24.4749 37.6464 23.5251 37.0607 22.9393L27.5147 13.3934C26.9289 12.8076 25.9792 12.8076 25.3934 13.3934C24.8076 13.9792 24.8076 14.9289 25.3934 15.5147L33.8787 24L25.3934 32.4853C24.8076 33.0711 24.8076 34.0208 25.3934 34.6066C25.9792 35.1924 26.9289 35.1924 27.5147 34.6066L37.0607 25.0607ZM12 24V25.5H36V24V22.5H12V24Z" fill="#013C5A"/>
<rect x="-1" y="1" width="46" height="46" rx="11" transform="matrix(-1 0 0 1 46 0)" stroke="#013C5A" stroke-width="2"/>
</svg>
