<svg width="41" height="40" viewBox="0 0 41 40" fill="none" xmlns="http://www.w3.org/2000/svg">
<rect x="39.5" y="39" width="38" height="38" rx="19" transform="rotate(-180 39.5 39)" stroke="#0C0B0B" stroke-width="2"/>
<path d="M15.6885 17.7236C15.6111 17.6463 15.6013 17.5264 15.6592 17.4385L15.6885 17.4023L20.3398 12.752C20.4172 12.6746 20.5361 12.6648 20.624 12.7227L20.6602 12.752L25.3105 17.4023C25.355 17.4468 25.3769 17.504 25.377 17.5625C25.377 17.6212 25.3549 17.6792 25.3105 17.7236L25.3105 17.7246C25.2331 17.8012 25.114 17.8097 25.0264 17.752L24.9902 17.7236L21.5801 14.3125L20.7266 13.459L20.7266 27.0879C20.7265 27.2129 20.625 27.3143 20.5 27.3145C20.3749 27.3145 20.2735 27.213 20.2734 27.0879L20.2734 13.459L16.0088 17.7236C15.9311 17.801 15.8116 17.8103 15.7236 17.752L15.6885 17.7236Z" fill="#0C0B0B" stroke="#0C0B0B"/>
</svg>
