<svg width="80" height="80" viewBox="0 0 80 80" fill="none" xmlns="http://www.w3.org/2000/svg">
<path opacity="0.3" d="M80 40C80 62.0914 62.0914 80 40 80C17.9086 80 0 62.0914 0 40C0 17.9086 17.9086 0 40 0C62.0914 0 80 17.9086 80 40ZM10.9071 40C10.9071 56.0675 23.9325 69.0929 40 69.0929C56.0675 69.0929 69.0929 56.0675 69.0929 40C69.0929 23.9325 56.0675 10.9071 40 10.9071C23.9325 10.9071 10.9071 23.9325 10.9071 40Z" fill="#2F2E30"/>
<circle cx="40" cy="40" r="29" fill="black"/>
<path d="M39.9834 22.5875C41.0048 22.5875 42.0044 22.7359 42.7578 23.0172V23.0182L51.0752 26.1354H51.0762C53.2957 26.9621 55.0508 29.5077 55.0508 31.8668V44.2496C55.0508 45.3368 54.7066 46.5896 54.124 47.7487C53.578 48.8349 52.8406 49.8025 52.0312 50.4557L51.8682 50.5826L44.7012 55.9323L44.6953 55.9371C43.4126 56.9262 41.724 57.4332 40 57.4332C38.2773 57.4332 36.5849 56.9264 35.2646 55.9479H35.2637L28.0996 50.5992C27.2269 49.9485 26.4256 48.921 25.8428 47.7594C25.2599 46.5977 24.917 45.3448 24.917 44.2662V31.8668C24.917 29.5814 26.5637 27.1205 28.6846 26.2174L28.8916 26.1354H28.8926L37.209 23.0182C37.9624 22.7367 38.9618 22.5875 39.9834 22.5875ZM40.001 24.0856C39.3021 24.0875 38.5817 24.1703 37.9883 24.3492L37.7422 24.4313L37.7412 24.4323L29.4248 27.5485H29.4238C28.5963 27.8601 27.8551 28.5226 27.3242 29.2906C26.7931 30.059 26.4336 30.99 26.4336 31.8834V44.2662C26.4336 45.1607 26.7442 46.1894 27.2012 47.1012C27.6009 47.8987 28.1375 48.6562 28.7393 49.1871L29.001 49.401L36.168 54.7506C37.2298 55.5445 38.6284 55.9253 40.002 55.9254C41.2901 55.9254 42.6032 55.5903 43.6436 54.8951L43.8477 54.7516L43.8496 54.7506L51.0156 49.401L51.0166 49.4C51.7314 48.864 52.3669 48.005 52.8223 47.0944C53.2776 46.1837 53.584 45.1597 53.584 44.2662V31.8668C53.584 30.9808 53.2236 30.054 52.6934 29.2867C52.1961 28.5673 51.5145 27.938 50.752 27.5983L50.5977 27.5338L50.5928 27.5319L42.2754 24.4147L42.2666 24.4117L42.0186 24.3326C41.4217 24.1621 40.7003 24.0837 40.001 24.0856Z" fill="#FAFAFA" stroke="#FAFAFA"/>
<path d="M44.4043 34.77C44.6743 34.5003 45.1158 34.4832 45.4072 34.7192L45.4639 34.77C45.734 35.0402 45.7503 35.4824 45.5137 35.7739L45.4639 35.8296L38.2969 42.9966C38.1456 43.1478 37.9578 43.2163 37.7666 43.2163C37.5995 43.2162 37.4356 43.1637 37.2959 43.0493L37.2373 42.9966L34.5537 40.313C34.2839 40.043 34.267 39.6015 34.5029 39.3101L34.5537 39.2534C34.8238 38.9833 35.2661 38.9663 35.5576 39.2026L35.6133 39.2534L37.7666 41.4067L38.1211 41.0532L44.4043 34.77Z" fill="#FAFAFA" stroke="#FAFAFA"/>
</svg>
