<svg version="1.1" id="Layer_1" xmlns="http://www.w3.org/2000/svg" xmlns:xlink="http://www.w3.org/1999/xlink" x="0px" y="0px"
	 width="100%" viewBox="0 0 498 501" enable-background="new 0 0 498 501" xml:space="preserve">
<path fill="#000000" opacity="1.000000" stroke="none" 
	d="
M319.000000,502.000000 
	C212.666687,502.000000 106.833382,502.000000 1.000057,502.000000 
	C1.000038,335.000061 1.000038,168.000137 1.000019,1.000146 
	C166.999893,1.000098 332.999786,1.000098 498.999756,1.000049 
	C498.999847,167.999863 498.999847,334.999725 498.999939,501.999786 
	C439.166656,502.000000 379.333344,502.000000 319.000000,502.000000 
M301.783386,256.182648 
	C301.783386,256.182648 301.865143,256.201111 301.859955,256.808380 
	C302.184753,257.258453 302.509552,257.708527 303.101685,258.565674 
	C303.314423,258.812775 303.550751,259.034698 303.803589,259.793365 
	C304.088501,260.219055 304.373413,260.644745 304.744751,261.236237 
	C304.744751,261.236237 304.921295,261.297882 305.117615,261.786285 
	C305.658905,262.217102 306.200226,262.647888 306.763214,263.202789 
	C306.763214,263.202789 306.889160,263.204987 306.980530,263.688080 
	C307.161774,263.987335 307.424988,264.165283 307.913147,264.904999 
	C309.121643,266.633636 310.298004,268.385864 311.545776,270.085663 
	C313.673462,272.984100 315.692871,272.970917 318.340485,270.374329 
	C330.217987,258.725525 339.963135,245.774246 345.694092,229.898865 
	C349.588257,219.111572 351.746063,207.939682 351.699402,196.729111 
	C351.660400,187.365250 349.913361,177.716293 347.192383,168.716751 
	C341.562195,150.094940 331.675079,134.104172 316.270203,121.434731 
	C307.918915,114.566360 298.860779,109.265961 289.225311,105.024742 
	C273.889557,98.274467 257.397980,98.181107 241.009583,99.015167 
	C230.757324,99.536934 221.172363,102.945526 211.678497,106.846214 
	C194.528076,113.892723 181.785995,125.986298 171.187180,140.716843 
	C170.644028,141.471771 171.059677,142.916565 171.446106,144.796570 
	C185.893463,144.819016 200.340836,144.841476 215.749054,144.942627 
	C222.392349,144.922119 229.112259,145.541580 235.664078,144.757065 
	C252.998764,142.681427 269.468781,143.853241 283.841705,155.074661 
	C292.662537,161.961365 299.611389,170.365448 301.901947,181.548477 
	C303.271545,188.235260 303.371887,195.182053 303.877045,202.852402 
	C303.277374,214.537415 298.025238,223.926071 289.875183,232.046783 
	C288.380524,233.536057 286.601685,236.803436 287.252258,237.990509 
	C289.108093,241.376724 292.148773,244.113602 294.763580,247.229248 
	C294.763580,247.229248 294.888458,247.264343 294.870758,247.899048 
	C295.545715,248.641907 296.220642,249.384766 297.118805,250.541840 
	C297.313232,250.795685 297.553223,250.994492 297.862518,251.794342 
	C298.826416,252.883209 299.790314,253.972061 300.777954,255.186081 
	C300.777954,255.186081 300.905121,255.194275 301.000183,255.655182 
	C301.176605,255.955795 301.439056,256.103699 301.783386,256.182648 
M163.483322,364.706390 
	C171.458740,365.324707 171.604630,365.241577 171.977539,359.093231 
	C172.065048,357.473846 172.152573,355.854462 172.228149,354.455872 
	C176.520203,352.666473 177.263657,355.768127 178.515076,358.205048 
	C182.693924,366.342712 181.898407,365.608643 192.332932,364.033020 
	C191.142456,361.767517 190.333771,359.466736 188.896774,357.667877 
	C186.591537,354.782166 186.146774,352.850128 189.308609,349.905151 
	C193.538223,345.965668 192.847763,340.422485 191.014893,335.603210 
	C189.430923,331.438324 186.007339,328.731232 180.542282,328.314941 
	C177.382385,328.285095 174.222504,328.255219 170.369339,328.093445 
	C169.902908,328.136536 169.436462,328.179626 168.503510,328.117889 
	C168.503510,328.117889 168.037064,328.222961 167.227783,328.093292 
	C165.863129,328.108276 164.498474,328.123260 162.222275,328.233063 
	C162.138016,339.693420 162.041061,351.153778 162.014191,362.614258 
	C162.013077,363.091156 162.666885,363.569550 163.483322,364.706390 
M250.939224,384.904877 
	C251.137024,387.759521 251.334824,390.614197 251.532623,393.468842 
	C252.085175,393.402740 252.637726,393.336609 253.190277,393.270508 
	C253.190277,390.195129 253.190277,387.119720 254.012207,384.029144 
	C254.981567,384.955444 256.571777,385.756317 256.789642,386.834473 
	C257.228516,389.006165 256.920288,391.328827 256.920288,393.624512 
	C259.678314,393.624512 261.760773,393.624512 263.843262,393.624512 
	C264.888000,393.168549 265.932739,392.712555 266.977478,392.256592 
	C257.823700,392.722198 259.225220,390.410248 262.618988,387.832550 
	C259.165192,385.183258 259.177612,385.116089 264.348175,382.620667 
	C258.287689,382.620667 253.374039,382.620667 248.460403,382.620667 
	C248.422729,382.872375 248.385071,383.124054 248.347412,383.375763 
	C249.205017,383.589508 250.062622,383.803223 250.939224,384.904877 
M232.306137,384.750610 
	C233.086792,387.759430 232.968460,391.737579 234.888290,393.518036 
	C237.020828,395.495697 240.487976,394.342072 241.999680,390.829193 
	C243.328217,387.741882 243.220078,385.092255 240.214600,383.106903 
	C237.234299,381.138214 234.532318,382.208160 231.612701,383.360870 
	C228.737381,381.978088 225.696457,380.163788 223.780930,384.507996 
	C222.195847,388.102783 219.933151,387.523560 216.976685,385.126251 
	C218.437759,384.518494 219.898849,383.910736 221.359924,383.302979 
	C221.334381,383.036896 221.308838,382.770844 221.283295,382.504761 
	C218.992371,382.504761 216.701447,382.504761 214.705170,382.504761 
	C214.915634,386.175568 215.127991,389.879517 215.363632,393.989594 
	C217.581085,393.743286 219.302002,393.552155 221.042404,393.358826 
	C219.474518,392.057678 218.378540,391.148163 217.282547,390.238647 
	C218.777420,389.617798 220.272293,388.996948 221.768936,388.375336 
	C223.780457,393.982574 225.467667,394.828674 231.035004,393.014679 
	C229.566696,392.468292 228.321259,392.362610 227.677109,391.685211 
	C226.583527,390.535126 225.025696,388.888489 225.217377,387.701569 
	C225.436600,386.344208 227.199112,385.013489 228.588638,384.150085 
	C229.440109,383.620941 230.850266,383.990906 232.306137,384.750610 
M270.135284,337.111725 
	C267.889648,337.111725 265.644012,337.111725 263.186859,337.111725 
	C263.186859,346.339264 263.186859,355.172882 263.433411,364.825195 
	C266.197357,364.825195 268.961304,364.825195 271.988220,364.825195 
	C271.988220,357.772095 272.067017,350.967407 271.944763,344.166290 
	C271.903015,341.845642 271.356293,339.534058 270.135284,337.111725 
M256.536530,248.288010 
	C244.351074,248.166092 232.165634,248.044159 219.926514,246.996109 
	C219.927353,242.884613 220.278137,238.736786 219.855667,234.669250 
	C218.994186,226.374771 222.640594,221.109222 230.964554,217.964340 
	C237.029037,217.963242 243.095612,218.054825 249.157028,217.917938 
	C251.785675,217.858566 254.403702,217.328613 257.833862,216.992737 
	C259.621521,216.485352 261.476562,216.142166 263.184631,215.440933 
	C269.180481,212.979370 272.325226,208.167725 274.230438,201.355179 
	C278.085754,189.606888 267.380096,176.598831 257.639801,175.860489 
	C247.070312,175.059280 236.412903,175.418274 224.897171,175.131088 
	C213.643982,175.139053 202.390778,175.147018 190.392029,175.045059 
	C189.892960,175.087570 189.393875,175.130066 188.512344,175.149170 
	C188.512344,175.149170 188.134933,175.215378 187.185394,175.121292 
	C174.190674,175.121292 161.195953,175.121292 148.201218,175.121292 
	C147.903107,175.601791 147.604980,176.082275 147.306870,176.562775 
	C149.868103,180.395889 152.429337,184.229004 155.037079,188.909302 
	C154.697067,191.328690 154.056656,193.749207 154.065582,196.167297 
	C154.125153,212.307785 158.223602,227.659775 165.507446,241.811859 
	C174.633789,259.543823 187.936203,273.573029 205.953323,283.020203 
	C229.057953,295.134949 253.035294,297.548889 278.768280,291.433411 
	C283.235504,293.232483 287.702728,295.031586 292.169952,296.830688 
	C292.610016,294.981995 292.311401,293.848541 291.652832,292.991821 
	C289.058441,289.616882 286.288330,286.376953 283.697144,282.999695 
	C276.101105,273.099426 268.579529,263.142029 260.975739,253.247772 
	C259.802704,251.721359 258.350250,250.409683 256.536530,248.288010 
M337.399841,357.955597 
	C335.352997,355.609619 331.202667,355.197906 327.589264,356.982361 
	C322.684845,359.404358 318.887543,358.345734 318.357971,353.828613 
	C324.809296,353.828613 331.201965,353.828613 337.503418,353.828613 
	C338.834473,342.105133 333.822021,336.994202 321.844391,336.967468 
	C316.168701,336.954803 311.666748,338.661652 309.236938,344.204926 
	C306.989746,349.331543 307.208374,354.781586 309.883942,359.205658 
	C313.148529,364.603516 318.885651,365.750488 325.260773,365.434296 
	C330.719025,365.163635 333.603821,361.760956 337.399841,357.955597 
M197.054611,346.613708 
	C196.966766,347.605652 196.794434,348.598511 196.805145,349.589386 
	C196.863785,355.015991 196.785965,360.588898 202.855896,363.293121 
	C212.189407,367.451263 217.286942,366.627991 225.601364,355.601746 
	C221.323608,356.286865 218.006485,356.123840 215.373016,357.386597 
	C210.131226,359.900055 209.034897,359.833130 206.184998,353.980316 
	C211.848495,353.980316 217.295227,354.183990 222.708099,353.845856 
	C224.172775,353.754333 226.605103,352.167908 226.760590,351.019531 
	C227.465332,345.814880 223.203064,339.436676 218.038803,338.069672 
	C214.739120,337.196259 211.161057,337.077026 207.714600,337.123413 
	C202.181976,337.197906 198.474426,340.595673 197.054611,346.613708 
M245.186508,349.576477 
	C244.979416,350.313965 244.772308,351.051453 244.161987,353.224884 
	C242.401199,349.291779 241.139099,346.579834 239.965469,343.830109 
	C236.934525,336.728790 236.950119,336.722137 228.786041,337.325775 
	C228.839752,338.284668 228.648254,339.342590 228.985764,340.189758 
	C231.923340,347.563141 234.819458,354.960358 238.085831,362.188721 
	C238.673035,363.488159 240.805954,364.484558 242.398285,364.835480 
	C244.446045,365.286774 246.668518,364.945251 248.339096,364.945251 
	C252.188629,355.722656 255.869049,346.905212 259.561401,338.059204 
	C251.815338,335.736206 250.521835,336.323700 247.930511,343.029724 
	C247.168579,345.001495 246.392105,346.967651 245.186508,349.576477 
M297.467010,359.021484 
	C300.475677,351.988068 303.484344,344.954620 306.780823,337.248352 
	C302.400482,337.248352 299.303528,337.248352 296.550537,337.248352 
	C294.732391,342.513550 292.983307,347.578766 290.783936,353.947845 
	C288.743011,348.123077 287.455536,343.765503 285.687958,339.612213 
	C284.172333,336.050873 280.722870,336.737762 277.906281,337.364288 
	C277.322327,337.494171 276.742218,340.656586 277.227234,342.050018 
	C279.226410,347.793365 281.749603,353.352081 283.849426,359.063477 
	C284.961151,362.087311 285.833893,364.807281 289.863220,365.020386 
	C293.935669,365.235840 296.665741,364.203400 297.467010,359.021484 
M267.500000,334.074799 
	C269.298309,332.744507 271.965454,331.747070 272.639954,329.986298 
	C273.260254,328.367126 272.353241,325.102692 270.984497,324.076935 
	C269.588806,323.031006 266.546021,323.225952 264.725861,324.022919 
	C263.401642,324.602692 261.839172,327.419617 262.250183,328.574768 
	C262.996979,330.673584 265.133301,332.277924 267.500000,334.074799 
M272.049896,382.643921 
	C269.220551,381.863037 266.585602,382.250092 266.031677,385.466919 
	C265.626617,387.819336 265.678436,390.762299 266.813354,392.680847 
	C267.522369,393.879395 270.622101,393.663666 272.648987,394.082581 
	C272.699860,393.619781 272.750732,393.157013 272.801575,392.694244 
	C272.387909,392.522919 271.961517,392.178375 271.562531,392.207611 
	C268.274597,392.448303 266.724579,390.252960 267.269470,387.736298 
	C267.575897,386.321136 270.352661,385.470032 271.955994,384.283081 
	C272.295593,384.031738 272.371857,383.424622 272.049896,382.643921 
M278.830078,388.961670 
	C279.615265,388.851410 280.400421,388.741150 281.185608,388.630890 
	C281.098419,388.358551 281.011261,388.086212 280.924072,387.813873 
	C280.004547,388.182312 279.084991,388.550751 278.830078,388.961670 
z"/>
<path fill="#3AB24B" opacity="1.000000" stroke="none" 
	d="
M303.810638,259.231506 
	C303.550751,259.034698 303.314423,258.812775 302.910248,258.088928 
	C302.434235,257.141815 302.149689,256.671478 301.865143,256.201111 
	C301.865143,256.201111 301.783386,256.182648 301.667511,255.963348 
	C301.370605,255.520248 301.155121,255.336975 300.905121,255.194275 
	C300.905121,255.194275 300.777954,255.186081 300.773743,254.768066 
	C299.792633,253.279465 298.815704,252.208862 297.838776,251.138275 
	C297.553223,250.994492 297.313232,250.795685 296.989258,249.999237 
	C296.202637,248.725876 295.545563,247.995102 294.888458,247.264343 
	C294.888458,247.264343 294.763580,247.229248 294.708313,246.793671 
	C292.832458,241.863449 296.037415,238.873642 297.999786,235.594559 
	C304.255890,225.140594 306.694397,214.046173 304.042755,202.011963 
	C303.371887,195.182053 303.271545,188.235260 301.901947,181.548477 
	C299.611389,170.365448 292.662537,161.961365 283.841705,155.074661 
	C269.468781,143.853241 252.998764,142.681427 235.664078,144.757065 
	C229.112259,145.541580 222.392349,144.922119 214.957123,144.657928 
	C199.786438,144.262192 185.407684,144.151184 171.028915,144.040161 
	C171.059677,142.916565 170.644028,141.471771 171.187180,140.716843 
	C181.785995,125.986298 194.528076,113.892723 211.678497,106.846214 
	C221.172363,102.945526 230.757324,99.536934 241.009583,99.015167 
	C257.397980,98.181107 273.889557,98.274467 289.225311,105.024742 
	C298.860779,109.265961 307.918915,114.566360 316.270203,121.434731 
	C331.675079,134.104172 341.562195,150.094940 347.192383,168.716751 
	C349.913361,177.716293 351.660400,187.365250 351.699402,196.729111 
	C351.746063,207.939682 349.588257,219.111572 345.694092,229.898865 
	C339.963135,245.774246 330.217987,258.725525 318.340485,270.374329 
	C315.692871,272.970917 313.673462,272.984100 311.545776,270.085663 
	C310.298004,268.385864 309.121643,266.633636 307.728668,264.368958 
	C307.346069,263.602539 307.127716,263.393219 306.889160,263.204987 
	C306.889160,263.204987 306.763214,263.202789 306.694214,262.864258 
	C306.057220,262.116425 305.489258,261.707153 304.921295,261.297882 
	C304.921295,261.297882 304.744751,261.236237 304.632812,260.902039 
	C304.284119,260.122375 304.047363,259.676941 303.810638,259.231506 
z"/>
<path fill="#5E70A4" opacity="1.000000" stroke="none" 
	d="
M273.836975,202.089157 
	C272.325226,208.167725 269.180481,212.979370 263.184631,215.440933 
	C261.476562,216.142166 259.621521,216.485352 256.960144,217.016708 
	C252.947327,217.060013 249.804535,216.989639 246.669937,217.118454 
	C241.122177,217.346420 235.579422,217.695526 230.034561,217.993942 
	C222.640594,221.109222 218.994186,226.374771 219.855667,234.669250 
	C220.278137,238.736786 219.927353,242.884613 219.923752,247.668396 
	C219.920990,248.340683 219.891144,248.761414 219.650116,249.111893 
	C219.279404,250.612488 219.060806,251.760544 219.034195,252.913040 
	C218.834610,261.558105 219.001877,261.729279 227.838699,261.743561 
	C236.322403,261.757294 244.808899,261.619995 253.287643,261.822601 
	C255.054779,261.864838 257.367279,262.615753 258.445465,263.879028 
	C263.078583,269.307343 267.477722,274.951538 271.693787,280.713440 
	C274.101257,284.003632 275.992798,287.671387 278.116638,291.169128 
	C253.035294,297.548889 229.057953,295.134949 205.953323,283.020203 
	C187.936203,273.573029 174.633789,259.543823 165.507446,241.811859 
	C158.223602,227.659775 154.125153,212.307785 154.065582,196.167297 
	C154.056656,193.749207 154.697067,191.328690 155.482086,188.487061 
	C188.163452,188.046021 220.399994,187.964600 252.636047,188.057922 
	C259.612396,188.078140 265.588684,190.625061 269.661652,196.717010 
	C270.918976,198.597595 272.437866,200.303360 273.836975,202.089157 
z"/>
<path fill="#404143" opacity="1.000000" stroke="none" 
	d="
M274.033691,201.722168 
	C272.437866,200.303360 270.918976,198.597595 269.661652,196.717010 
	C265.588684,190.625061 259.612396,188.078140 252.636047,188.057922 
	C220.399994,187.964600 188.163452,188.046021 155.458832,188.063477 
	C152.429337,184.229004 149.868103,180.395889 147.306870,176.562775 
	C147.604980,176.082275 147.903107,175.601791 148.201218,175.121292 
	C161.195953,175.121292 174.190674,175.121292 187.751709,175.228027 
	C188.318039,175.334747 188.625656,175.353180 188.625656,175.353180 
	C188.625656,175.353180 188.894806,175.172562 188.894806,175.172562 
	C189.393875,175.130066 189.892960,175.087570 191.109222,175.299332 
	C203.148895,175.459518 214.471375,175.365433 225.793839,175.271362 
	C236.412903,175.418274 247.070312,175.059280 257.639801,175.860489 
	C267.380096,176.598831 278.085754,189.606888 274.033691,201.722168 
z"/>
<path fill="#404143" opacity="1.000000" stroke="none" 
	d="
M278.442444,291.301270 
	C275.992798,287.671387 274.101257,284.003632 271.693787,280.713440 
	C267.477722,274.951538 263.078583,269.307343 258.445465,263.879028 
	C257.367279,262.615753 255.054779,261.864838 253.287643,261.822601 
	C244.808899,261.619995 236.322403,261.757294 227.838699,261.743561 
	C219.001877,261.729279 218.834610,261.558105 219.034195,252.913040 
	C219.060806,251.760544 219.279404,250.612488 220.127075,249.167572 
	C232.905701,248.914749 244.966354,248.956726 257.027008,248.998703 
	C258.350250,250.409683 259.802704,251.721359 260.975739,253.247772 
	C268.579529,263.142029 276.101105,273.099426 283.697144,282.999695 
	C286.288330,286.376953 289.058441,289.616882 291.652832,292.991821 
	C292.311401,293.848541 292.610016,294.981995 292.169952,296.830688 
	C287.702728,295.031586 283.235504,293.232483 278.442444,291.301270 
z"/>
<path fill="#5F70A2" opacity="1.000000" stroke="none" 
	d="
M168.970032,328.222687 
	C169.436462,328.179626 169.902908,328.136536 171.065887,328.345032 
	C174.859787,328.724030 177.957108,328.851440 181.054443,328.978821 
	C186.007339,328.731232 189.430923,331.438324 191.014893,335.603210 
	C192.847763,340.422485 193.538223,345.965668 189.308609,349.905151 
	C186.146774,352.850128 186.591537,354.782166 188.896774,357.667877 
	C190.333771,359.466736 191.142456,361.767517 192.332932,364.033020 
	C181.898407,365.608643 182.693924,366.342712 178.515076,358.205048 
	C177.263657,355.768127 176.520203,352.666473 172.228149,354.455872 
	C172.152573,355.854462 172.065048,357.473846 171.737244,359.263245 
	C171.181549,358.488434 170.866150,357.543610 170.550751,356.598755 
	C169.989166,357.565704 170.251099,358.512146 169.933334,359.184631 
	C169.317719,360.487488 168.375839,361.636200 167.569183,362.848816 
	C166.426819,361.657043 164.747482,360.643890 164.276672,359.228699 
	C163.674973,357.420105 164.064972,355.286621 163.998230,353.294128 
	C163.738022,345.526764 163.466232,337.759796 163.170120,329.684082 
	C163.138931,328.963043 163.136383,328.550629 163.133820,328.138214 
	C164.498474,328.123260 165.863129,328.108276 167.737732,328.241119 
	C168.247665,328.388947 168.631958,328.425934 168.631958,328.425934 
	C168.631958,328.425934 168.970032,328.222687 168.970032,328.222687 
M182.921967,339.754608 
	C180.398376,334.160553 175.673965,336.302277 171.551498,336.164551 
	C170.379395,344.087982 170.723267,345.471832 173.867798,346.029877 
	C179.129425,346.963623 181.549622,345.510071 182.921967,339.754608 
z"/>
<path fill="#60709F" opacity="1.000000" stroke="none" 
	d="
M337.164551,358.244629 
	C333.603821,361.760956 330.719025,365.163635 325.260773,365.434296 
	C318.885651,365.750488 313.148529,364.603516 309.883942,359.205658 
	C307.208374,354.781586 306.989746,349.331543 309.236938,344.204926 
	C311.666748,338.661652 316.168701,336.954803 321.844391,336.967468 
	C333.822021,336.994202 338.834473,342.105133 337.503418,353.828613 
	C331.201965,353.828613 324.809296,353.828613 318.357971,353.828613 
	C318.887543,358.345734 322.684845,359.404358 327.589264,356.982361 
	C331.202667,355.197906 335.352997,355.609619 337.164551,358.244629 
M325.361298,344.236145 
	C321.229034,342.065796 319.562897,344.910919 317.253998,347.545349 
	C321.597321,347.545349 325.226654,347.545349 328.856018,347.545349 
	C328.938171,347.218750 329.020355,346.892120 329.102509,346.565521 
	C328.065643,345.932709 327.028809,345.299896 325.361298,344.236145 
z"/>
<path fill="#60709F" opacity="1.000000" stroke="none" 
	d="
M197.276581,346.271362 
	C198.474426,340.595673 202.181976,337.197906 207.714600,337.123413 
	C211.161057,337.077026 214.739120,337.196259 218.038803,338.069672 
	C223.203064,339.436676 227.465332,345.814880 226.760590,351.019531 
	C226.605103,352.167908 224.172775,353.754333 222.708099,353.845856 
	C217.295227,354.183990 211.848495,353.980316 206.184998,353.980316 
	C209.034897,359.833130 210.131226,359.900055 215.373016,357.386597 
	C218.006485,356.123840 221.323608,356.286865 225.601364,355.601746 
	C217.286942,366.627991 212.189407,367.451263 202.855896,363.293121 
	C196.785965,360.588898 196.863785,355.015991 196.805145,349.589386 
	C196.794434,348.598511 196.966766,347.605652 197.276581,346.271362 
M206.194565,346.980591 
	C209.826294,347.462738 213.458008,347.944916 217.916656,348.536865 
	C213.249069,342.075592 213.249069,342.075592 206.194565,346.980591 
z"/>
<path fill="#60709F" opacity="1.000000" stroke="none" 
	d="
M245.404419,349.256409 
	C246.392105,346.967651 247.168579,345.001495 247.930511,343.029724 
	C250.521835,336.323700 251.815338,335.736206 259.561401,338.059204 
	C255.869049,346.905212 252.188629,355.722656 248.339096,364.945251 
	C246.668518,364.945251 244.446045,365.286774 242.398285,364.835480 
	C240.805954,364.484558 238.673035,363.488159 238.085831,362.188721 
	C234.819458,354.960358 231.923340,347.563141 228.985764,340.189758 
	C228.648254,339.342590 228.839752,338.284668 228.786041,337.325775 
	C236.950119,336.722137 236.934525,336.728790 239.965469,343.830109 
	C241.139099,346.579834 242.401199,349.291779 244.161987,353.224884 
	C244.772308,351.051453 244.979416,350.313965 245.404419,349.256409 
z"/>
<path fill="#60709F" opacity="1.000000" stroke="none" 
	d="
M297.290771,359.376648 
	C296.665741,364.203400 293.935669,365.235840 289.863220,365.020386 
	C285.833893,364.807281 284.961151,362.087311 283.849426,359.063477 
	C281.749603,353.352081 279.226410,347.793365 277.227234,342.050018 
	C276.742218,340.656586 277.322327,337.494171 277.906281,337.364288 
	C280.722870,336.737762 284.172333,336.050873 285.687958,339.612213 
	C287.455536,343.765503 288.743011,348.123077 290.783936,353.947845 
	C292.983307,347.578766 294.732391,342.513550 296.550537,337.248352 
	C299.303528,337.248352 302.400482,337.248352 306.780823,337.248352 
	C303.484344,344.954620 300.475677,351.988068 297.290771,359.376648 
z"/>
<path fill="#2E8940" opacity="1.000000" stroke="none" 
	d="
M303.959900,202.432190 
	C306.694397,214.046173 304.255890,225.140594 297.999786,235.594559 
	C296.037415,238.873642 292.832458,241.863449 294.688171,246.732025 
	C292.148773,244.113602 289.108093,241.376724 287.252258,237.990509 
	C286.601685,236.803436 288.380524,233.536057 289.875183,232.046783 
	C298.025238,223.926071 303.277374,214.537415 303.959900,202.432190 
z"/>
<path fill="#60709F" opacity="1.000000" stroke="none" 
	d="
M263.186859,364.006470 
	C263.186859,355.172882 263.186859,346.339264 263.186859,337.111725 
	C265.644012,337.111725 267.889648,337.111725 270.603455,337.618774 
	C271.055847,345.222229 270.911621,352.321747 271.080994,359.413757 
	C271.160248,362.732330 270.235596,364.448944 266.649384,364.001892 
	C265.513062,363.860229 264.342010,363.997070 263.186859,364.006470 
z"/>
<path fill="#595959" opacity="1.000000" stroke="none" 
	d="
M232.009521,383.957092 
	C230.850266,383.990906 229.440109,383.620941 228.588638,384.150085 
	C227.199112,385.013489 225.436600,386.344208 225.217377,387.701569 
	C225.025696,388.888489 226.583527,390.535126 227.677109,391.685211 
	C228.321259,392.362610 229.566696,392.468292 231.035004,393.014679 
	C225.467667,394.828674 223.780457,393.982574 221.768936,388.375336 
	C220.272293,388.996948 218.777420,389.617798 217.282562,390.238647 
	C218.378540,391.148163 219.474518,392.057678 221.042404,393.358826 
	C219.302002,393.552155 217.581085,393.743286 215.363632,393.989594 
	C215.127991,389.879517 214.915634,386.175568 214.705170,382.504761 
	C216.701447,382.504761 218.992371,382.504761 221.283295,382.504761 
	C221.308838,382.770844 221.334381,383.036896 221.359924,383.302979 
	C219.898849,383.910736 218.437759,384.518494 216.976685,385.126251 
	C219.933151,387.523560 222.195847,388.102783 223.780930,384.507996 
	C225.696457,380.163788 228.737381,381.978088 231.796768,383.678864 
	C231.980835,383.996857 232.009521,383.957092 232.009521,383.957092 
z"/>
<path fill="#60709F" opacity="1.000000" stroke="none" 
	d="
M267.094849,334.081726 
	C265.133301,332.277924 262.996979,330.673584 262.250183,328.574768 
	C261.839172,327.419617 263.401642,324.602692 264.725861,324.022919 
	C266.546021,323.225952 269.588806,323.031006 270.984497,324.076935 
	C272.353241,325.102692 273.260254,328.367126 272.639954,329.986298 
	C271.965454,331.747070 269.298309,332.744507 267.094849,334.081726 
z"/>
<path fill="#595959" opacity="1.000000" stroke="none" 
	d="
M250.920227,384.016968 
	C250.062622,383.803223 249.205017,383.589508 248.347412,383.375763 
	C248.385071,383.124054 248.422729,382.872375 248.460403,382.620667 
	C253.374039,382.620667 258.287689,382.620667 264.348175,382.620667 
	C259.177612,385.116089 259.165192,385.183258 262.618988,387.832550 
	C259.225220,390.410248 257.823700,392.722198 266.977478,392.256592 
	C265.932739,392.712555 264.888000,393.168549 263.843262,393.624512 
	C261.760773,393.624512 259.678314,393.624512 256.920288,393.624512 
	C256.920288,391.328827 257.228516,389.006165 256.789642,386.834473 
	C256.571777,385.756317 254.981567,384.955444 253.223526,384.008789 
	C251.929977,383.997925 251.425095,384.007416 250.920227,384.016968 
z"/>
<path fill="#595959" opacity="1.000000" stroke="none" 
	d="
M231.961517,384.012024 
	C234.532318,382.208160 237.234299,381.138214 240.214600,383.106903 
	C243.220078,385.092255 243.328217,387.741882 241.999680,390.829193 
	C240.487976,394.342072 237.020828,395.495697 234.888290,393.518036 
	C232.968460,391.737579 233.086792,387.759430 232.157837,384.353851 
	C232.009521,383.957092 231.980835,383.996857 231.961517,384.012024 
M240.304596,386.893646 
	C239.173096,385.867676 238.041580,384.841705 235.717010,382.733948 
	C235.717010,386.747772 235.717010,389.210052 235.717010,391.672363 
	C236.366241,391.921844 237.015472,392.171326 237.664703,392.420807 
	C238.694122,390.750183 239.723541,389.079529 240.304596,386.893646 
z"/>
<path fill="#60709F" opacity="1.000000" stroke="none" 
	d="
M163.198761,329.992676 
	C163.466232,337.759796 163.738022,345.526764 163.998230,353.294128 
	C164.064972,355.286621 163.674973,357.420105 164.276672,359.228699 
	C164.747482,360.643890 166.426819,361.657043 167.569183,362.848816 
	C168.375839,361.636200 169.317719,360.487488 169.933334,359.184631 
	C170.251099,358.512146 169.989166,357.565704 170.550751,356.598755 
	C170.866150,357.543610 171.181549,358.488434 171.670990,359.687500 
	C171.604630,365.241577 171.458740,365.324707 163.264526,363.905090 
	C163.096725,352.066772 163.147736,341.029724 163.198761,329.992676 
z"/>
<path fill="#AAB1C9" opacity="1.000000" stroke="none" 
	d="
M171.237518,144.418365 
	C185.407684,144.151184 199.786438,144.262192 214.476700,144.618561 
	C200.340836,144.841476 185.893463,144.819016 171.237518,144.418365 
z"/>
<path fill="#595959" opacity="1.000000" stroke="none" 
	d="
M272.309692,382.812683 
	C272.371857,383.424622 272.295593,384.031738 271.955994,384.283081 
	C270.352661,385.470032 267.575897,386.321136 267.269470,387.736298 
	C266.724579,390.252960 268.274597,392.448303 271.562531,392.207611 
	C271.961517,392.178375 272.387909,392.522919 272.801575,392.694244 
	C272.750732,393.157013 272.699860,393.619781 272.648987,394.082581 
	C270.622101,393.663666 267.522369,393.879395 266.813354,392.680847 
	C265.678436,390.762299 265.626617,387.819336 266.031677,385.466919 
	C266.585602,382.250092 269.220551,381.863037 272.309692,382.812683 
z"/>
<path fill="#6F7072" opacity="1.000000" stroke="none" 
	d="
M256.781769,248.643356 
	C244.966354,248.956726 232.905701,248.914749 220.368103,248.817093 
	C219.891144,248.761414 219.920990,248.340683 219.950592,248.131454 
	C232.165634,248.044159 244.351074,248.166092 256.781769,248.643356 
z"/>
<path fill="#AAB1C9" opacity="1.000000" stroke="none" 
	d="
M163.170135,329.684082 
	C163.147736,341.029724 163.096725,352.066772 163.030640,363.575531 
	C162.666885,363.569550 162.013077,363.091156 162.014191,362.614258 
	C162.041061,351.153778 162.138016,339.693420 162.678055,328.185638 
	C163.136383,328.550629 163.138931,328.963043 163.170135,329.684082 
z"/>
<path fill="#AAB1C9" opacity="1.000000" stroke="none" 
	d="
M263.310120,364.415833 
	C264.342010,363.997070 265.513062,363.860229 266.649384,364.001892 
	C270.235596,364.448944 271.160248,362.732330 271.080994,359.413757 
	C270.911621,352.321747 271.055847,345.222229 271.055969,337.672058 
	C271.356293,339.534058 271.903015,341.845642 271.944763,344.166290 
	C272.067017,350.967407 271.988220,357.772095 271.988220,364.825195 
	C268.961304,364.825195 266.197357,364.825195 263.310120,364.415833 
z"/>
<path fill="#595959" opacity="1.000000" stroke="none" 
	d="
M225.345505,175.201233 
	C214.471375,175.365433 203.148895,175.459518 191.482010,175.354309 
	C202.390778,175.147018 213.643982,175.139053 225.345505,175.201233 
z"/>
<path fill="#AAB1C9" opacity="1.000000" stroke="none" 
	d="
M230.499557,217.979141 
	C235.579422,217.695526 241.122177,217.346420 246.669937,217.118454 
	C249.804535,216.989639 252.947327,217.060013 256.556488,217.026550 
	C254.403702,217.328613 251.785675,217.858566 249.157028,217.917938 
	C243.095612,218.054825 237.029037,217.963242 230.499557,217.979141 
z"/>
<path fill="#6F7072" opacity="1.000000" stroke="none" 
	d="
M250.929718,384.460907 
	C251.425095,384.007416 251.929977,383.997925 252.812561,384.016357 
	C253.190277,387.119720 253.190277,390.195129 253.190277,393.270508 
	C252.637726,393.336609 252.085175,393.402740 251.532623,393.468842 
	C251.334824,390.614197 251.137024,387.759521 250.929718,384.460907 
z"/>
<path fill="#60709F" opacity="1.000000" stroke="none" 
	d="
M180.798370,328.646912 
	C177.957108,328.851440 174.859787,328.724030 171.412537,328.410980 
	C174.222504,328.255219 177.382385,328.285095 180.798370,328.646912 
z"/>
<path fill="#2E8940" opacity="1.000000" stroke="none" 
	d="
M297.850647,251.466309 
	C298.815704,252.208862 299.792633,253.279465 300.761902,254.705505 
	C299.790314,253.972061 298.826416,252.883209 297.850647,251.466309 
z"/>
<path fill="#2E8940" opacity="1.000000" stroke="none" 
	d="
M294.879608,247.581696 
	C295.545563,247.995102 296.202637,248.725876 296.877655,249.792145 
	C296.220642,249.384766 295.545715,248.641907 294.879608,247.581696 
z"/>
<path fill="#AAB1C9" opacity="1.000000" stroke="none" 
	d="
M278.497772,388.940430 
	C279.084991,388.550751 280.004547,388.182312 280.924072,387.813873 
	C281.011261,388.086212 281.098419,388.358551 281.185608,388.630890 
	C280.400421,388.741150 279.615265,388.851410 278.497772,388.940430 
z"/>
<path fill="#2E8940" opacity="1.000000" stroke="none" 
	d="
M305.019470,261.542084 
	C305.489258,261.707153 306.057220,262.116425 306.683350,262.802185 
	C306.200226,262.647888 305.658905,262.217102 305.019470,261.542084 
z"/>
<path fill="#2E8940" opacity="1.000000" stroke="none" 
	d="
M303.807129,259.512451 
	C304.047363,259.676941 304.284119,260.122375 304.589600,260.819122 
	C304.373413,260.644745 304.088501,260.219055 303.807129,259.512451 
z"/>
<path fill="#2E8940" opacity="1.000000" stroke="none" 
	d="
M301.862549,256.504761 
	C302.149689,256.671478 302.434235,257.141815 302.776581,257.885376 
	C302.509552,257.708527 302.184753,257.258453 301.862549,256.504761 
z"/>
<path fill="#60709F" opacity="1.000000" stroke="none" 
	d="
M168.736771,328.170288 
	C168.970032,328.222687 168.631958,328.425934 168.631958,328.425934 
	C168.631958,328.425934 168.247665,328.388947 168.142365,328.305969 
	C168.037064,328.222961 168.503510,328.117889 168.736771,328.170288 
z"/>
<path fill="#2E8940" opacity="1.000000" stroke="none" 
	d="
M306.934845,263.446533 
	C307.127716,263.393219 307.346069,263.602539 307.657166,264.027435 
	C307.424988,264.165283 307.161774,263.987335 306.934845,263.446533 
z"/>
<path fill="#2E8940" opacity="1.000000" stroke="none" 
	d="
M300.952637,255.424728 
	C301.155121,255.336975 301.370605,255.520248 301.669617,255.921478 
	C301.439056,256.103699 301.176605,255.955795 300.952637,255.424728 
z"/>
<path fill="#595959" opacity="1.000000" stroke="none" 
	d="
M188.703583,175.160858 
	C188.894806,175.172562 188.625656,175.353180 188.625656,175.353180 
	C188.625656,175.353180 188.318039,175.334747 188.226486,175.275055 
	C188.134933,175.215378 188.512344,175.149170 188.703583,175.160858 
z"/>
<path fill="#000000" opacity="1.000000" stroke="none" 
	d="
M182.954132,340.153931 
	C181.549622,345.510071 179.129425,346.963623 173.867798,346.029877 
	C170.723267,345.471832 170.379395,344.087982 171.551498,336.164551 
	C175.673965,336.302277 180.398376,334.160553 182.954132,340.153931 
z"/>
<path fill="#000000" opacity="1.000000" stroke="none" 
	d="
M325.676636,344.451599 
	C327.028809,345.299896 328.065643,345.932709 329.102509,346.565521 
	C329.020355,346.892120 328.938171,347.218750 328.856018,347.545349 
	C325.226654,347.545349 321.597321,347.545349 317.253998,347.545349 
	C319.562897,344.910919 321.229034,342.065796 325.676636,344.451599 
z"/>
<path fill="#000000" opacity="1.000000" stroke="none" 
	d="
M206.288971,346.592407 
	C213.249069,342.075592 213.249069,342.075592 217.916656,348.536865 
	C213.458008,347.944916 209.826294,347.462738 206.288971,346.592407 
z"/>
<path fill="#000000" opacity="1.000000" stroke="none" 
	d="
M240.528778,387.151276 
	C239.723541,389.079529 238.694122,390.750183 237.664703,392.420807 
	C237.015472,392.171326 236.366241,391.921844 235.717010,391.672363 
	C235.717010,389.210052 235.717010,386.747772 235.717010,382.733948 
	C238.041580,384.841705 239.173096,385.867676 240.528778,387.151276 
z"/>
</svg>