<svg width="29" height="26" viewBox="0 0 29 26" fill="none" xmlns="http://www.w3.org/2000/svg">
<path d="M23.9999 12.0845H26.3999C26.3999 6.77242 21.7523 2.76611 15.5879 2.76611V4.83709C20.4623 4.83709 23.9999 7.88454 23.9999 12.0845Z" fill="white"/>
<path d="M15.5999 8.97922C18.1235 8.97922 19.1999 9.90805 19.1999 12.0857H21.5999C21.5999 8.74623 19.4699 6.90824 15.5999 6.90824V8.97922ZM19.7063 14.6154C19.4758 14.4345 19.1728 14.3381 18.8613 14.3464C18.5499 14.3547 18.2543 14.4671 18.0371 14.6599L15.1655 17.2083C14.4743 17.0944 13.0847 16.7205 11.6543 15.4893C10.2239 14.254 9.79075 13.0518 9.66235 12.4595L12.6131 9.98054C12.8368 9.79325 12.9673 9.5382 12.9769 9.26937C12.9866 9.00054 12.8746 8.73903 12.6647 8.54017L8.23075 4.33297C8.0208 4.13349 7.729 4.01249 7.41733 3.99567C7.10566 3.97885 6.79867 4.06753 6.56155 4.24289L3.95755 6.16993C3.75008 6.34961 3.62625 6.58874 3.60955 6.84197C3.59155 7.10084 3.24835 13.233 8.75875 17.9901C13.5659 22.1372 19.5875 22.4406 21.2459 22.4406C21.4883 22.4406 21.6371 22.4344 21.6767 22.4323C21.9702 22.4181 22.2471 22.3108 22.4543 22.131L24.6863 19.8829C24.8897 19.6784 24.9927 19.4136 24.9734 19.1447C24.9541 18.8757 24.8141 18.6239 24.5831 18.4426L19.7063 14.6154V14.6154Z" fill="white"/>
</svg>
